<svg xmlns="http://www.w3.org/2000/svg" width="295.434" height="52.542" viewBox="0 0 295.434 52.542">
  <defs>
    <style>
      .cls-1 {
        fill: #2a2a2a;
      }
    </style>
  </defs>
  <path id="arma-tu-caja" class="cls-1" d="M15.444-29.16q6.372,0,9.747,3.051T28.566-16.9V0H22.194V-3.51A7.853,7.853,0,0,1,18.657-.621a13.826,13.826,0,0,1-5.535,1A13.561,13.561,0,0,1,7.452-.729,8.761,8.761,0,0,1,3.7-3.807,7.811,7.811,0,0,1,2.376-8.262,7.635,7.635,0,0,1,5.265-14.5q2.889-2.349,9.1-2.349h7.452v-.432a5.91,5.91,0,0,0-1.809-4.644,7.827,7.827,0,0,0-5.373-1.62,15.509,15.509,0,0,0-4.779.756,11.74,11.74,0,0,0-3.969,2.106L3.24-25.6a16.385,16.385,0,0,1,5.454-2.646A24.267,24.267,0,0,1,15.444-29.16ZM14.526-4.536A8.716,8.716,0,0,0,19.035-5.7a6.317,6.317,0,0,0,2.781-3.321v-3.348H14.85q-5.832,0-5.832,3.834a3.441,3.441,0,0,0,1.458,2.916A6.684,6.684,0,0,0,14.526-4.536Zm25-20.088q2.916-4.536,10.26-4.536v6.426a8.569,8.569,0,0,0-1.566-.162,8.153,8.153,0,0,0-6.156,2.3q-2.214,2.3-2.214,6.615V0H33.1V-28.836h6.426ZM87.8-29.16A11.731,11.731,0,0,1,96.444-26q3.186,3.159,3.186,9.477V0H92.88V-15.66a8.443,8.443,0,0,0-1.674-5.7A6.038,6.038,0,0,0,86.4-23.274a7.039,7.039,0,0,0-5.454,2.241,9.143,9.143,0,0,0-2.052,6.4V0h-6.75V-15.66a8.443,8.443,0,0,0-1.674-5.7,6.038,6.038,0,0,0-4.806-1.917,7.062,7.062,0,0,0-5.481,2.214q-2.025,2.214-2.025,6.426V0h-6.75V-28.836h6.426v3.672a10.5,10.5,0,0,1,4.05-2.97,13.75,13.75,0,0,1,5.4-1.026,13.045,13.045,0,0,1,5.751,1.215A9.335,9.335,0,0,1,77-24.354a12.017,12.017,0,0,1,4.59-3.537A14.907,14.907,0,0,1,87.8-29.16Zm27.378,0q6.372,0,9.747,3.051T128.3-16.9V0h-6.372V-3.51A7.853,7.853,0,0,1,118.4-.621a13.826,13.826,0,0,1-5.535,1,13.561,13.561,0,0,1-5.67-1.107,8.761,8.761,0,0,1-3.753-3.078,7.811,7.811,0,0,1-1.323-4.455A7.635,7.635,0,0,1,105-14.5q2.889-2.349,9.1-2.349h7.452v-.432a5.91,5.91,0,0,0-1.809-4.644,7.827,7.827,0,0,0-5.373-1.62,15.509,15.509,0,0,0-4.779.756,11.74,11.74,0,0,0-3.969,2.106L102.978-25.6a16.385,16.385,0,0,1,5.454-2.646A24.267,24.267,0,0,1,115.182-29.16Zm-.918,24.624A8.716,8.716,0,0,0,118.773-5.7a6.317,6.317,0,0,0,2.781-3.321v-3.348h-6.966q-5.832,0-5.832,3.834a3.441,3.441,0,0,0,1.458,2.916A6.684,6.684,0,0,0,114.264-4.536Zm46.71,2.97a7.946,7.946,0,0,1-2.889,1.458,13.011,13.011,0,0,1-3.591.486q-4.752,0-7.344-2.484t-2.592-7.236V-23.22h-4.752v-5.4h4.752v-6.588h6.75v6.588h7.722v5.4h-7.722V-9.5a4.562,4.562,0,0,0,1.026,3.213,3.85,3.85,0,0,0,2.97,1.107,5.93,5.93,0,0,0,3.78-1.188Zm29.376-27.27V0h-6.426V-3.672a10.742,10.742,0,0,1-4.05,3A13.03,13.03,0,0,1,174.636.378q-5.778,0-9.1-3.213t-3.321-9.531v-16.47h6.75v15.552q0,3.888,1.755,5.805a6.431,6.431,0,0,0,5,1.917A7.564,7.564,0,0,0,181.467-7.8q2.133-2.241,2.133-6.453v-14.58ZM219.132.378a16.906,16.906,0,0,1-8.046-1.89,13.878,13.878,0,0,1-5.562-5.265,14.712,14.712,0,0,1-2-7.641,14.569,14.569,0,0,1,2-7.614,13.981,13.981,0,0,1,5.535-5.238,16.863,16.863,0,0,1,8.073-1.89,15.553,15.553,0,0,1,7.479,1.728,11.212,11.212,0,0,1,4.833,4.968L226.26-19.44a8.234,8.234,0,0,0-3.1-3,8.49,8.49,0,0,0-4.077-1,8.541,8.541,0,0,0-6.264,2.457,8.814,8.814,0,0,0-2.484,6.561,8.867,8.867,0,0,0,2.457,6.561A8.518,8.518,0,0,0,219.078-5.4a8.49,8.49,0,0,0,4.077-1,8.234,8.234,0,0,0,3.1-3l5.184,3.024a11.684,11.684,0,0,1-4.887,5A15.242,15.242,0,0,1,219.132.378ZM244.188-29.16q6.372,0,9.747,3.051T257.31-16.9V0h-6.372V-3.51A7.853,7.853,0,0,1,247.4-.621a13.826,13.826,0,0,1-5.535,1A13.561,13.561,0,0,1,236.2-.729a8.761,8.761,0,0,1-3.753-3.078,7.811,7.811,0,0,1-1.323-4.455,7.635,7.635,0,0,1,2.889-6.237q2.889-2.349,9.1-2.349h7.452v-.432a5.91,5.91,0,0,0-1.809-4.644,7.827,7.827,0,0,0-5.373-1.62,15.509,15.509,0,0,0-4.779.756,11.74,11.74,0,0,0-3.969,2.106L231.984-25.6a16.384,16.384,0,0,1,5.454-2.646A24.267,24.267,0,0,1,244.188-29.16ZM243.27-4.536A8.716,8.716,0,0,0,247.779-5.7a6.317,6.317,0,0,0,2.781-3.321v-3.348h-6.966q-5.832,0-5.832,3.834a3.441,3.441,0,0,0,1.458,2.916A6.684,6.684,0,0,0,243.27-4.536Zm15.606,15.39q-4.266,0-6.48-1.674l1.944-5.022a6.4,6.4,0,0,0,3.942,1.134,3.6,3.6,0,0,0,2.889-1.161,5.129,5.129,0,0,0,1-3.429V-28.836h6.75V.54a10.458,10.458,0,0,1-2.646,7.56A9.776,9.776,0,0,1,258.876,10.854Zm6.642-44.442a4.335,4.335,0,0,1-3.078-1.161,3.793,3.793,0,0,1-1.242-2.889,3.793,3.793,0,0,1,1.242-2.889,4.336,4.336,0,0,1,3.078-1.161,4.457,4.457,0,0,1,3.078,1.107,3.568,3.568,0,0,1,1.242,2.781,4.072,4.072,0,0,1-1.215,3A4.2,4.2,0,0,1,265.518-33.588Zm19.17,4.428q6.372,0,9.747,3.051T297.81-16.9V0h-6.372V-3.51A7.853,7.853,0,0,1,287.9-.621a13.826,13.826,0,0,1-5.535,1A13.561,13.561,0,0,1,276.7-.729a8.761,8.761,0,0,1-3.753-3.078,7.811,7.811,0,0,1-1.323-4.455,7.635,7.635,0,0,1,2.889-6.237q2.889-2.349,9.1-2.349h7.452v-.432a5.91,5.91,0,0,0-1.809-4.644,7.826,7.826,0,0,0-5.373-1.62,15.509,15.509,0,0,0-4.779.756,11.74,11.74,0,0,0-3.969,2.106L272.484-25.6a16.385,16.385,0,0,1,5.454-2.646A24.267,24.267,0,0,1,284.688-29.16ZM283.77-4.536A8.716,8.716,0,0,0,288.279-5.7a6.317,6.317,0,0,0,2.781-3.321v-3.348h-6.966q-5.832,0-5.832,3.834a3.441,3.441,0,0,0,1.458,2.916A6.684,6.684,0,0,0,283.77-4.536Z" transform="translate(-2.376 41.688)"/>
</svg>
