<svg xmlns="http://www.w3.org/2000/svg" width="301.152" height="31.632" viewBox="0 0 301.152 31.632">
  <defs>
    <style>
      .cls-1 {
        fill: #2a2a2a;
      }
    </style>
  </defs>
  <path id="encuentranos" class="cls-1" d="M28.032-12.672q0,.624-.1,1.776H7.824a6.971,6.971,0,0,0,2.76,4.488,9.047,9.047,0,0,0,5.544,1.656,9.343,9.343,0,0,0,6.96-2.784L26.3-3.84A10.836,10.836,0,0,1,21.936-.72,15.91,15.91,0,0,1,15.984.336a15.84,15.84,0,0,1-7.44-1.68,12.1,12.1,0,0,1-4.968-4.68,13.216,13.216,0,0,1-1.752-6.792,13.412,13.412,0,0,1,1.7-6.744,12.087,12.087,0,0,1,4.728-4.68,13.8,13.8,0,0,1,6.816-1.68,13.449,13.449,0,0,1,6.7,1.656,11.728,11.728,0,0,1,4.608,4.656A14.118,14.118,0,0,1,28.032-12.672ZM15.072-21.12a7.238,7.238,0,0,0-4.872,1.7A7.168,7.168,0,0,0,7.776-14.88H22.32a7.073,7.073,0,0,0-2.352-4.512A7.153,7.153,0,0,0,15.072-21.12Zm29.616-4.8a10.711,10.711,0,0,1,7.776,2.832q2.928,2.832,2.928,8.4V0h-6V-13.92a7.2,7.2,0,0,0-1.584-5.064,5.857,5.857,0,0,0-4.512-1.7A6.926,6.926,0,0,0,38.064-18.7a7.94,7.94,0,0,0-1.92,5.736V0h-6V-25.632h5.712v3.312A9.38,9.38,0,0,1,39.6-25.008,13.474,13.474,0,0,1,44.688-25.92ZM71.376.336a15.028,15.028,0,0,1-7.152-1.68,12.336,12.336,0,0,1-4.944-4.68A13.078,13.078,0,0,1,57.5-12.816a12.951,12.951,0,0,1,1.776-6.768A12.427,12.427,0,0,1,64.2-24.24a14.989,14.989,0,0,1,7.176-1.68,13.825,13.825,0,0,1,6.648,1.536,9.966,9.966,0,0,1,4.3,4.416L77.712-17.28a7.319,7.319,0,0,0-2.76-2.664,7.547,7.547,0,0,0-3.624-.888,7.592,7.592,0,0,0-5.568,2.184,7.834,7.834,0,0,0-2.208,5.832,7.882,7.882,0,0,0,2.184,5.832A7.572,7.572,0,0,0,71.328-4.8a7.547,7.547,0,0,0,3.624-.888,7.319,7.319,0,0,0,2.76-2.664L82.32-5.664a10.386,10.386,0,0,1-4.344,4.44A13.549,13.549,0,0,1,71.376.336Zm37.3-25.968V0H102.96V-3.264A9.549,9.549,0,0,1,99.36-.6,11.583,11.583,0,0,1,94.7.336,11.142,11.142,0,0,1,86.616-2.52q-2.952-2.856-2.952-8.472v-14.64h6v13.824a7.426,7.426,0,0,0,1.56,5.16,5.716,5.716,0,0,0,4.44,1.7,6.724,6.724,0,0,0,5.112-1.992,8,8,0,0,0,1.9-5.736v-12.96Zm28.32,12.96q0,.624-.1,1.776H116.784a6.971,6.971,0,0,0,2.76,4.488,9.047,9.047,0,0,0,5.544,1.656,9.343,9.343,0,0,0,6.96-2.784l3.216,3.7A10.836,10.836,0,0,1,130.9-.72,15.91,15.91,0,0,1,124.944.336a15.84,15.84,0,0,1-7.44-1.68,12.1,12.1,0,0,1-4.968-4.68,13.216,13.216,0,0,1-1.752-6.792,13.412,13.412,0,0,1,1.7-6.744,12.087,12.087,0,0,1,4.728-4.68,13.8,13.8,0,0,1,6.816-1.68,13.449,13.449,0,0,1,6.7,1.656,11.728,11.728,0,0,1,4.608,4.656A14.118,14.118,0,0,1,136.992-12.672Zm-12.96-8.448a7.238,7.238,0,0,0-4.872,1.7,7.168,7.168,0,0,0-2.424,4.536H131.28a7.073,7.073,0,0,0-2.352-4.512A7.153,7.153,0,0,0,124.032-21.12Zm29.616-4.8a10.711,10.711,0,0,1,7.776,2.832q2.928,2.832,2.928,8.4V0h-6V-13.92a7.2,7.2,0,0,0-1.584-5.064,5.857,5.857,0,0,0-4.512-1.7,6.926,6.926,0,0,0-5.232,1.992,7.94,7.94,0,0,0-1.92,5.736V0h-6V-25.632h5.712v3.312a9.38,9.38,0,0,1,3.744-2.688A13.474,13.474,0,0,1,153.648-25.92Zm30.1,24.528a7.063,7.063,0,0,1-2.568,1.3,11.565,11.565,0,0,1-3.192.432,9.058,9.058,0,0,1-6.528-2.208q-2.3-2.208-2.3-6.432V-20.64h-4.224v-4.8h4.224V-31.3h6v5.856h6.864v4.8h-6.864V-8.448a4.055,4.055,0,0,0,.912,2.856,3.422,3.422,0,0,0,2.64.984,5.271,5.271,0,0,0,3.36-1.056Zm7.008-20.5q2.592-4.032,9.12-4.032v5.712a7.617,7.617,0,0,0-1.392-.144,7.247,7.247,0,0,0-5.472,2.04,8.136,8.136,0,0,0-1.968,5.88V0h-6V-25.632h5.712ZM210.96-25.92q5.664,0,8.664,2.712t3,8.184V0H216.96V-3.12a6.981,6.981,0,0,1-3.144,2.568,12.29,12.29,0,0,1-4.92.888,12.054,12.054,0,0,1-5.04-.984,7.788,7.788,0,0,1-3.336-2.736,6.943,6.943,0,0,1-1.176-3.96,6.787,6.787,0,0,1,2.568-5.544q2.568-2.088,8.088-2.088h6.624v-.384a5.253,5.253,0,0,0-1.608-4.128,6.957,6.957,0,0,0-4.776-1.44,13.786,13.786,0,0,0-4.248.672,10.436,10.436,0,0,0-3.528,1.872l-2.352-4.368A14.564,14.564,0,0,1,204.96-25.1,21.571,21.571,0,0,1,210.96-25.92Zm-.816,21.888a7.747,7.747,0,0,0,4.008-1.032,5.615,5.615,0,0,0,2.472-2.952v-2.976h-6.192q-5.184,0-5.184,3.408a3.059,3.059,0,0,0,1.3,2.592A5.941,5.941,0,0,0,210.144-4.032ZM241.2-25.92a10.711,10.711,0,0,1,7.776,2.832q2.928,2.832,2.928,8.4V0h-6V-13.92a7.2,7.2,0,0,0-1.584-5.064,5.857,5.857,0,0,0-4.512-1.7,6.926,6.926,0,0,0-5.232,1.992,7.94,7.94,0,0,0-1.92,5.736V0h-6V-25.632h5.712v3.312a9.38,9.38,0,0,1,3.744-2.688A13.474,13.474,0,0,1,241.2-25.92ZM267.648.336a14.543,14.543,0,0,1-7.008-1.68,12.25,12.25,0,0,1-4.872-4.68,13.216,13.216,0,0,1-1.752-6.792,13.088,13.088,0,0,1,1.752-6.768,12.3,12.3,0,0,1,4.872-4.656,14.543,14.543,0,0,1,7.008-1.68,14.644,14.644,0,0,1,7.056,1.68,12.3,12.3,0,0,1,4.872,4.656,13.088,13.088,0,0,1,1.752,6.768,13.216,13.216,0,0,1-1.752,6.792,12.25,12.25,0,0,1-4.872,4.68A14.644,14.644,0,0,1,267.648.336Zm0-5.136a7.331,7.331,0,0,0,5.472-2.208,7.95,7.95,0,0,0,2.16-5.808,7.95,7.95,0,0,0-2.16-5.808,7.331,7.331,0,0,0-5.472-2.208,7.252,7.252,0,0,0-5.448,2.208,8,8,0,0,0-2.136,5.808A8,8,0,0,0,262.2-7.008,7.252,7.252,0,0,0,267.648-4.8ZM291.36.336a22.949,22.949,0,0,1-6.1-.816,15.338,15.338,0,0,1-4.752-2.064l2.3-4.56a14.813,14.813,0,0,0,4.152,1.848,17.25,17.25,0,0,0,4.776.7q5.376,0,5.376-2.832a1.892,1.892,0,0,0-1.368-1.872,23.62,23.62,0,0,0-4.392-1.008,35.631,35.631,0,0,1-5.16-1.1,7.92,7.92,0,0,1-3.456-2.184A6.1,6.1,0,0,1,281.28-17.9a6.829,6.829,0,0,1,3.048-5.832,13.872,13.872,0,0,1,8.232-2.184,23.757,23.757,0,0,1,5.28.6,14.8,14.8,0,0,1,4.32,1.608l-2.3,4.56a14.211,14.211,0,0,0-7.344-1.92,8.14,8.14,0,0,0-4.008.792,2.363,2.363,0,0,0-1.368,2.088,2.086,2.086,0,0,0,1.464,2.04,23.265,23.265,0,0,0,4.536,1.128,35,35,0,0,1,5.04,1.1,7.889,7.889,0,0,1,3.384,2.112,5.887,5.887,0,0,1,1.416,4.224,6.684,6.684,0,0,1-3.12,5.76Q296.736.336,291.36.336Z" transform="translate(-1.824 31.296)"/>
</svg>
