<svg xmlns="http://www.w3.org/2000/svg" width="185.538" height="120.716" viewBox="0 0 185.538 120.716">
  <defs>
    <style>
      .cls-1 {
        fill: #8e8e8e;
      }
    </style>
  </defs>
  <g id="footer" transform="translate(-36 -2580)">
    <path id="Path_67" data-name="Path 67" class="cls-1" d="M-66.878.042a4.865,4.865,0,0,1-2.5-.658,4.817,4.817,0,0,1-1.778-1.792A4.917,4.917,0,0,1-71.806-4.9a4.917,4.917,0,0,1,.651-2.492A4.8,4.8,0,0,1-69.37-9.184a4.93,4.93,0,0,1,2.52-.658,4.975,4.975,0,0,1,2.513.644,4.677,4.677,0,0,1,1.771,1.771,4.947,4.947,0,0,1,.644,2.5,4.941,4.941,0,0,1-.658,2.513,4.839,4.839,0,0,1-1.792,1.8A4.9,4.9,0,0,1-66.878.042Zm0-.518a4.324,4.324,0,0,0,2.24-.6,4.4,4.4,0,0,0,1.6-1.61,4.4,4.4,0,0,0,.588-2.247,4.408,4.408,0,0,0-.574-2.233A4.235,4.235,0,0,0-64.6-8.743a4.394,4.394,0,0,0-2.247-.581,4.428,4.428,0,0,0-2.261.588,4.278,4.278,0,0,0-1.6,1.6A4.416,4.416,0,0,0-71.288-4.9a4.416,4.416,0,0,0,.581,2.233,4.294,4.294,0,0,0,1.589,1.6A4.364,4.364,0,0,0-66.878-.476Zm.126-1.512a3.008,3.008,0,0,1-1.491-.371,2.681,2.681,0,0,1-1.043-1.036A2.991,2.991,0,0,1-69.664-4.9a2.991,2.991,0,0,1,.378-1.5,2.681,2.681,0,0,1,1.043-1.036,3.008,3.008,0,0,1,1.491-.371,2.884,2.884,0,0,1,1.3.287,2.408,2.408,0,0,1,.931.791l-.6.448a1.833,1.833,0,0,0-.714-.6,2.158,2.158,0,0,0-.924-.2,2.027,2.027,0,0,0-1.5.6,2.153,2.153,0,0,0-.6,1.582,2.153,2.153,0,0,0,.6,1.582,2.027,2.027,0,0,0,1.5.6,2.158,2.158,0,0,0,.924-.2,1.833,1.833,0,0,0,.714-.6l.6.434a2.365,2.365,0,0,1-.931.805A2.884,2.884,0,0,1-66.752-1.988ZM-50.12-.9V0h-6.874V-.714L-52.92-4.7a5.271,5.271,0,0,0,1.043-1.309A2.493,2.493,0,0,0-51.6-7.126a1.643,1.643,0,0,0-.6-1.351,2.638,2.638,0,0,0-1.7-.483,3.359,3.359,0,0,0-2.674,1.092l-.714-.616A3.76,3.76,0,0,1-55.825-9.52a5.261,5.261,0,0,1,2.009-.364,3.669,3.669,0,0,1,2.373.707,2.358,2.358,0,0,1,.875,1.939A3.326,3.326,0,0,1-50.9-5.782a6.105,6.105,0,0,1-1.274,1.61L-55.51-.9Zm5.11.98a3.524,3.524,0,0,1-2.023-.6,3.945,3.945,0,0,1-1.386-1.729,6.533,6.533,0,0,1-.5-2.653,6.533,6.533,0,0,1,.5-2.653,3.945,3.945,0,0,1,1.386-1.729,3.524,3.524,0,0,1,2.023-.6,3.524,3.524,0,0,1,2.023.6,3.991,3.991,0,0,1,1.393,1.729,6.453,6.453,0,0,1,.5,2.653,6.453,6.453,0,0,1-.5,2.653A3.991,3.991,0,0,1-42.987-.518,3.524,3.524,0,0,1-45.01.084Zm0-.924A2.483,2.483,0,0,0-43.5-1.316,3.077,3.077,0,0,0-42.49-2.7a5.921,5.921,0,0,0,.364-2.2,5.921,5.921,0,0,0-.364-2.2A3.077,3.077,0,0,0-43.5-8.484,2.483,2.483,0,0,0-45.01-8.96a2.483,2.483,0,0,0-1.5.476A3.077,3.077,0,0,0-47.53-7.1a5.921,5.921,0,0,0-.364,2.2,5.921,5.921,0,0,0,.364,2.2,3.077,3.077,0,0,0,1.015,1.386A2.483,2.483,0,0,0-45.01-.84Zm8.05-8.96V0h-1.008V-8.9h-2.31v-.9Zm5.39-.084A3.613,3.613,0,0,1-28.588-8.6a5.618,5.618,0,0,1,1.036,3.619,6.218,6.218,0,0,1-.56,2.772A3.922,3.922,0,0,1-29.68-.5a4.627,4.627,0,0,1-2.352.581,4.417,4.417,0,0,1-2.324-.532l.406-.812a3.421,3.421,0,0,0,1.9.462A3.25,3.25,0,0,0-29.5-1.827a4.334,4.334,0,0,0,.924-2.989q0-.364-.042-.8a2.642,2.642,0,0,1-1.162,1.239,3.729,3.729,0,0,1-1.834.441A3.876,3.876,0,0,1-33.327-4.3,2.79,2.79,0,0,1-34.5-5.327a2.835,2.835,0,0,1-.42-1.547,2.9,2.9,0,0,1,.434-1.582,2.865,2.865,0,0,1,1.2-1.057A3.871,3.871,0,0,1-31.57-9.884Zm.112,5.1a2.92,2.92,0,0,0,1.309-.28,2.206,2.206,0,0,0,.889-.77,1.946,1.946,0,0,0,.322-1.092,1.9,1.9,0,0,0-.3-1.036,2.162,2.162,0,0,0-.889-.77,3.1,3.1,0,0,0-1.4-.294,2.532,2.532,0,0,0-1.729.581A1.952,1.952,0,0,0-33.922-6.9a1.931,1.931,0,0,0,.665,1.54A2.66,2.66,0,0,0-31.458-4.788ZM-17.976-7.42a3.782,3.782,0,0,1,1.876.469,3.354,3.354,0,0,1,1.316,1.323,3.929,3.929,0,0,1,.476,1.946,3.958,3.958,0,0,1-.476,1.96A3.367,3.367,0,0,1-16.093-.4,3.771,3.771,0,0,1-17.976.07,3.482,3.482,0,0,1-19.593-.3a3.064,3.064,0,0,1-1.183-1.085v4.1h-.994V-7.364h.952v1.456a3.062,3.062,0,0,1,1.183-1.12A3.47,3.47,0,0,1-17.976-7.42Zm-.07,6.608a2.79,2.79,0,0,0,1.4-.357,2.522,2.522,0,0,0,.987-1.015,3.09,3.09,0,0,0,.357-1.5,3.05,3.05,0,0,0-.357-1.491,2.581,2.581,0,0,0-.987-1.015,2.748,2.748,0,0,0-1.4-.364,2.737,2.737,0,0,0-1.407.364,2.6,2.6,0,0,0-.98,1.015,3.05,3.05,0,0,0-.357,1.491,3.09,3.09,0,0,0,.357,1.5,2.535,2.535,0,0,0,.98,1.015A2.779,2.779,0,0,0-18.046-.812ZM-9.268.07a3.827,3.827,0,0,1-1.918-.483A3.522,3.522,0,0,1-12.53-1.75a3.812,3.812,0,0,1-.49-1.932,3.812,3.812,0,0,1,.49-1.932,3.472,3.472,0,0,1,1.344-1.33A3.872,3.872,0,0,1-9.268-7.42a3.872,3.872,0,0,1,1.918.476,3.424,3.424,0,0,1,1.337,1.33A3.855,3.855,0,0,1-5.53-3.682,3.855,3.855,0,0,1-6.013-1.75,3.473,3.473,0,0,1-7.35-.413,3.827,3.827,0,0,1-9.268.07Zm0-.882a2.779,2.779,0,0,0,1.407-.357,2.489,2.489,0,0,0,.973-1.015,3.14,3.14,0,0,0,.35-1.5,3.14,3.14,0,0,0-.35-1.5A2.489,2.489,0,0,0-7.861-6.2a2.779,2.779,0,0,0-1.407-.357,2.779,2.779,0,0,0-1.407.357,2.535,2.535,0,0,0-.98,1.015,3.09,3.09,0,0,0-.357,1.5,3.09,3.09,0,0,0,.357,1.5,2.535,2.535,0,0,0,.98,1.015A2.779,2.779,0,0,0-9.268-.812Zm6.72-5.11A2.409,2.409,0,0,1-1.5-7.042,3.544,3.544,0,0,1,.21-7.42v.966l-.238-.014a2.352,2.352,0,0,0-1.82.714,2.845,2.845,0,0,0-.658,2V0H-3.5V-7.364h.952ZM8.834.07A3.968,3.968,0,0,1,6.881-.406,3.446,3.446,0,0,1,5.53-1.743a3.85,3.85,0,0,1-.49-1.939,3.812,3.812,0,0,1,.49-1.932,3.459,3.459,0,0,1,1.351-1.33A3.968,3.968,0,0,1,8.834-7.42a3.782,3.782,0,0,1,1.7.371,2.825,2.825,0,0,1,1.183,1.085l-.742.5a2.321,2.321,0,0,0-.924-.819,2.742,2.742,0,0,0-1.218-.273A2.884,2.884,0,0,0,7.4-6.2,2.509,2.509,0,0,0,6.405-5.18a3.09,3.09,0,0,0-.357,1.5,3.08,3.08,0,0,0,.357,1.505A2.52,2.52,0,0,0,7.4-1.169a2.884,2.884,0,0,0,1.435.357,2.8,2.8,0,0,0,1.218-.266,2.269,2.269,0,0,0,.924-.812l.742.5A2.815,2.815,0,0,1,10.528-.3,3.794,3.794,0,0,1,8.834.07Zm5.782-5.992a2.409,2.409,0,0,1,1.043-1.12,3.544,3.544,0,0,1,1.715-.378v.966l-.238-.014a2.352,2.352,0,0,0-1.82.714,2.845,2.845,0,0,0-.658,2V0h-.994V-7.364h.952ZM21.2.07a5.654,5.654,0,0,1-1.715-.259A3.689,3.689,0,0,1,18.2-.84l.448-.784a3.772,3.772,0,0,0,1.162.6A4.616,4.616,0,0,0,21.266-.8a2.78,2.78,0,0,0,1.491-.315A1,1,0,0,0,23.24-2a.8.8,0,0,0-.266-.637,1.767,1.767,0,0,0-.672-.35,9.586,9.586,0,0,0-1.078-.231,12.359,12.359,0,0,1-1.442-.343,2.119,2.119,0,0,1-.931-.6,1.655,1.655,0,0,1-.385-1.162,1.821,1.821,0,0,1,.77-1.512,3.458,3.458,0,0,1,2.142-.588,5.56,5.56,0,0,1,1.428.189,3.929,3.929,0,0,1,1.176.5l-.434.8a3.717,3.717,0,0,0-2.17-.63,2.516,2.516,0,0,0-1.435.336,1.029,1.029,0,0,0-.483.882.871.871,0,0,0,.273.672,1.679,1.679,0,0,0,.679.371,10.956,10.956,0,0,0,1.12.245,12.884,12.884,0,0,1,1.414.336,2.077,2.077,0,0,1,.91.574,1.58,1.58,0,0,1,.378,1.12A1.781,1.781,0,0,1,23.429-.5,3.827,3.827,0,0,1,21.2.07Zm8.75-.518a1.882,1.882,0,0,1-.693.385,2.791,2.791,0,0,1-.861.133,2.159,2.159,0,0,1-1.6-.56,2.139,2.139,0,0,1-.56-1.582V-6.524H24.92v-.84h1.316v-1.61h.994v1.61h2.24v.84H27.23v4.4a1.391,1.391,0,0,0,.329,1,1.248,1.248,0,0,0,.945.343,1.829,1.829,0,0,0,.595-.1,1.479,1.479,0,0,0,.5-.28ZM35.5-7.42a3.009,3.009,0,0,1,2.205.805,3.144,3.144,0,0,1,.819,2.345V0h-.994V-4.172a2.441,2.441,0,0,0-.574-1.75,2.156,2.156,0,0,0-1.638-.6,2.516,2.516,0,0,0-1.883.707,2.67,2.67,0,0,0-.693,1.953V0h-.994V-7.364H32.7v1.358a2.765,2.765,0,0,1,1.127-1.043A3.607,3.607,0,0,1,35.5-7.42Zm12.474-2.968V0h-.952V-1.456A3.031,3.031,0,0,1,45.843-.322,3.47,3.47,0,0,1,44.184.07a3.738,3.738,0,0,1-1.876-.476,3.4,3.4,0,0,1-1.316-1.33,3.929,3.929,0,0,1-.476-1.946,3.929,3.929,0,0,1,.476-1.946,3.354,3.354,0,0,1,1.316-1.323,3.782,3.782,0,0,1,1.876-.469,3.482,3.482,0,0,1,1.617.371,3.064,3.064,0,0,1,1.183,1.085v-4.424ZM44.268-.812a2.751,2.751,0,0,0,1.393-.357,2.535,2.535,0,0,0,.98-1.015A3.09,3.09,0,0,0,47-3.682a3.09,3.09,0,0,0-.357-1.5,2.535,2.535,0,0,0-.98-1.015,2.751,2.751,0,0,0-1.393-.357,2.779,2.779,0,0,0-1.407.357,2.535,2.535,0,0,0-.98,1.015,3.09,3.09,0,0,0-.357,1.5,3.09,3.09,0,0,0,.357,1.5,2.535,2.535,0,0,0,.98,1.015A2.779,2.779,0,0,0,44.268-.812ZM52.724.07a5.654,5.654,0,0,1-1.715-.259A3.689,3.689,0,0,1,49.728-.84l.448-.784a3.772,3.772,0,0,0,1.162.6A4.616,4.616,0,0,0,52.794-.8a2.78,2.78,0,0,0,1.491-.315A1,1,0,0,0,54.768-2a.8.8,0,0,0-.266-.637,1.767,1.767,0,0,0-.672-.35,9.585,9.585,0,0,0-1.078-.231,12.359,12.359,0,0,1-1.442-.343,2.119,2.119,0,0,1-.931-.6,1.655,1.655,0,0,1-.385-1.162,1.821,1.821,0,0,1,.77-1.512,3.458,3.458,0,0,1,2.142-.588,5.56,5.56,0,0,1,1.428.189,3.929,3.929,0,0,1,1.176.5l-.434.8a3.717,3.717,0,0,0-2.17-.63,2.516,2.516,0,0,0-1.435.336,1.029,1.029,0,0,0-.483.882.871.871,0,0,0,.273.672,1.679,1.679,0,0,0,.679.371,10.956,10.956,0,0,0,1.12.245,12.884,12.884,0,0,1,1.414.336,2.077,2.077,0,0,1,.91.574,1.58,1.58,0,0,1,.378,1.12,1.781,1.781,0,0,1-.8,1.533A3.827,3.827,0,0,1,52.724.07Zm6.846,0a5.654,5.654,0,0,1-1.715-.259A3.689,3.689,0,0,1,56.574-.84l.448-.784a3.772,3.772,0,0,0,1.162.6A4.616,4.616,0,0,0,59.64-.8a2.78,2.78,0,0,0,1.491-.315A1,1,0,0,0,61.614-2a.8.8,0,0,0-.266-.637,1.767,1.767,0,0,0-.672-.35A9.585,9.585,0,0,0,59.6-3.22a12.359,12.359,0,0,1-1.442-.343,2.119,2.119,0,0,1-.931-.6A1.655,1.655,0,0,1,56.84-5.32a1.821,1.821,0,0,1,.77-1.512,3.458,3.458,0,0,1,2.142-.588,5.56,5.56,0,0,1,1.428.189,3.929,3.929,0,0,1,1.176.5l-.434.8a3.717,3.717,0,0,0-2.17-.63,2.516,2.516,0,0,0-1.435.336,1.029,1.029,0,0,0-.483.882.871.871,0,0,0,.273.672,1.679,1.679,0,0,0,.679.371,10.956,10.956,0,0,0,1.12.245,12.884,12.884,0,0,1,1.414.336,2.077,2.077,0,0,1,.91.574,1.58,1.58,0,0,1,.378,1.12A1.781,1.781,0,0,1,61.8-.5,3.827,3.827,0,0,1,59.57.07Zm8.624-7.49a3.009,3.009,0,0,1,2.205.805,3.144,3.144,0,0,1,.819,2.345V0h-.994V-4.172a2.441,2.441,0,0,0-.574-1.75,2.156,2.156,0,0,0-1.638-.6,2.516,2.516,0,0,0-1.883.707,2.67,2.67,0,0,0-.693,1.953V0h-.994V-7.364h.952v1.358a2.765,2.765,0,0,1,1.127-1.043A3.607,3.607,0,0,1,68.194-7.42Z" transform="translate(109 2698)"/>
    <path id="instagram-brands" class="cls-1" d="M18.183,40.717a9.358,9.358,0,1,0,9.358,9.358A9.343,9.343,0,0,0,18.183,40.717Zm0,15.442a6.084,6.084,0,1,1,6.084-6.084,6.1,6.1,0,0,1-6.084,6.084ZM30.107,40.334a2.183,2.183,0,1,1-2.183-2.183A2.178,2.178,0,0,1,30.107,40.334Zm6.2,2.215c-.138-2.924-.806-5.514-2.948-7.648s-4.724-2.8-7.648-2.948c-3.013-.171-12.046-.171-15.059,0-2.916.138-5.506.806-7.648,2.94S.2,39.617.053,42.541c-.171,3.013-.171,12.046,0,15.059C.192,60.524.86,63.114,3,65.248s4.724,2.8,7.648,2.948c3.013.171,12.046.171,15.059,0,2.924-.138,5.514-.806,7.648-2.948s2.8-4.724,2.948-7.648c.171-3.014.171-12.038,0-15.051ZM32.412,60.834a6.16,6.16,0,0,1-3.47,3.47c-2.4.953-8.1.733-10.759.733s-8.364.212-10.759-.733a6.16,6.16,0,0,1-3.47-3.47c-.953-2.4-.733-8.1-.733-10.759s-.212-8.364.733-10.759a6.16,6.16,0,0,1,3.47-3.47c2.4-.953,8.1-.733,10.759-.733s8.364-.212,10.759.733a6.16,6.16,0,0,1,3.47,3.47c.953,2.4.733,8.1.733,10.759S33.365,58.439,32.412,60.834Z" transform="translate(36.075 2548.175)"/>
    <path id="Path_68" data-name="Path 68" class="cls-1" d="M-88.146-11.034h-4.32V-12.6h10.422v1.566h-4.32V0h-1.782ZM-72.7-4.716a4.952,4.952,0,0,1-.036.522h-7.74a3,3,0,0,0,1.107,2.025,3.613,3.613,0,0,0,2.349.765,3.539,3.539,0,0,0,2.754-1.152l.954,1.116A4.179,4.179,0,0,1-74.925-.288a5.607,5.607,0,0,1-2.151.4,5.634,5.634,0,0,1-2.682-.621A4.429,4.429,0,0,1-81.567-2.25a4.98,4.98,0,0,1-.639-2.52,5.057,5.057,0,0,1,.621-2.5,4.449,4.449,0,0,1,1.71-1.737,4.871,4.871,0,0,1,2.457-.621,4.773,4.773,0,0,1,2.439.621,4.361,4.361,0,0,1,1.674,1.737A5.292,5.292,0,0,1-72.7-4.716Zm-4.716-3.456a2.987,2.987,0,0,0-2.079.756,3.048,3.048,0,0,0-.981,1.98h6.12a3.068,3.068,0,0,0-.981-1.971A2.966,2.966,0,0,0-77.418-8.172Zm1.08-5.094h2.2l-3.024,2.34h-1.62Zm7.686,5.328A2.948,2.948,0,0,1-67.32-9.2a4.834,4.834,0,0,1,2.142-.432v1.674a3.373,3.373,0,0,0-.4-.018,2.907,2.907,0,0,0-2.205.837,3.313,3.313,0,0,0-.8,2.385V0h-1.728V-9.54h1.656ZM-51.12-9.63a3.874,3.874,0,0,1,2.853,1.044,4.178,4.178,0,0,1,1.053,3.1V0h-1.728V-5.292a3.009,3.009,0,0,0-.639-2.088,2.345,2.345,0,0,0-1.827-.7,2.736,2.736,0,0,0-2.088.819,3.291,3.291,0,0,0-.774,2.349V0H-56V-5.292a3.009,3.009,0,0,0-.639-2.088,2.345,2.345,0,0,0-1.827-.7,2.736,2.736,0,0,0-2.088.819,3.291,3.291,0,0,0-.774,2.349V0h-1.728V-9.54H-61.4v1.422A3.348,3.348,0,0,1-60.03-9.243,4.581,4.581,0,0,1-58.1-9.63a4.224,4.224,0,0,1,1.98.45,3.127,3.127,0,0,1,1.332,1.314,3.655,3.655,0,0,1,1.5-1.3A4.9,4.9,0,0,1-51.12-9.63Zm7.092.09H-42.3V0h-1.728Zm.864-1.836A1.152,1.152,0,0,1-44-11.7a1.063,1.063,0,0,1-.333-.792,1.092,1.092,0,0,1,.333-.8,1.135,1.135,0,0,1,.837-.333,1.17,1.17,0,0,1,.837.315,1.034,1.034,0,0,1,.333.783,1.113,1.113,0,0,1-.333.819A1.135,1.135,0,0,1-43.164-11.376Zm9.252,1.746a3.942,3.942,0,0,1,2.889,1.053A4.142,4.142,0,0,1-29.952-5.49V0H-31.68V-5.292a2.929,2.929,0,0,0-.666-2.088,2.5,2.5,0,0,0-1.908-.7,2.973,2.973,0,0,0-2.214.819,3.2,3.2,0,0,0-.81,2.349V0h-1.728V-9.54h1.656V-8.1a3.359,3.359,0,0,1,1.413-1.134A4.938,4.938,0,0,1-33.912-9.63Zm11.3,9.738a5.173,5.173,0,0,1-2.556-.63,4.569,4.569,0,0,1-1.773-1.737,4.931,4.931,0,0,1-.639-2.511,4.931,4.931,0,0,1,.639-2.511,4.506,4.506,0,0,1,1.773-1.728,5.233,5.233,0,0,1,2.556-.621,5.182,5.182,0,0,1,2.547.621A4.522,4.522,0,0,1-18.3-7.281a4.931,4.931,0,0,1,.639,2.511A4.931,4.931,0,0,1-18.3-2.259,4.586,4.586,0,0,1-20.061-.522,5.123,5.123,0,0,1-22.608.108Zm0-1.512a3.221,3.221,0,0,0,1.647-.423,2.986,2.986,0,0,0,1.143-1.188A3.629,3.629,0,0,0-19.4-4.77a3.629,3.629,0,0,0-.414-1.755A2.924,2.924,0,0,0-20.961-7.7a3.276,3.276,0,0,0-1.647-.414,3.276,3.276,0,0,0-1.647.414,2.985,2.985,0,0,0-1.152,1.179A3.566,3.566,0,0,0-25.83-4.77a3.566,3.566,0,0,0,.423,1.755,3.048,3.048,0,0,0,1.152,1.188A3.221,3.221,0,0,0-22.608-1.4ZM-12.528.108a8,8,0,0,1-2.25-.315,4.941,4.941,0,0,1-1.692-.8l.72-1.368a5.168,5.168,0,0,0,1.53.72,6.3,6.3,0,0,0,1.818.27q2.268,0,2.268-1.3a.839.839,0,0,0-.306-.684,1.937,1.937,0,0,0-.765-.369Q-11.664-3.852-12.51-4a12.789,12.789,0,0,1-1.881-.414A2.9,2.9,0,0,1-15.642-5.2a2.2,2.2,0,0,1-.522-1.566,2.446,2.446,0,0,1,1.08-2.079,4.837,4.837,0,0,1,2.9-.783,7.984,7.984,0,0,1,1.908.234,5.131,5.131,0,0,1,1.566.63L-9.45-7.4A4.962,4.962,0,0,0-12.2-8.154a3.183,3.183,0,0,0-1.674.36,1.086,1.086,0,0,0-.576.954.91.91,0,0,0,.324.738,2.049,2.049,0,0,0,.8.4q.477.126,1.341.288a14.554,14.554,0,0,1,1.863.423A2.782,2.782,0,0,1-8.91-4.23a2.131,2.131,0,0,1,.5,1.512A2.384,2.384,0,0,1-9.513-.657,5.228,5.228,0,0,1-12.528.108ZM7.038-9.54,2.412.954A4.732,4.732,0,0,1,.981,3.006,3.266,3.266,0,0,1-.99,3.6a4.166,4.166,0,0,1-1.359-.225,2.79,2.79,0,0,1-1.089-.657l.738-1.3a2.406,2.406,0,0,0,1.71.7A1.65,1.65,0,0,0,.063,1.791,2.84,2.84,0,0,0,.828.648l.306-.666L-3.078-9.54h1.8l3.33,7.632L5.346-9.54ZM17.424.144A8.623,8.623,0,0,1,14.679-.3,5.637,5.637,0,0,1,12.6-1.44l.666-1.4a5.515,5.515,0,0,0,1.845,1.053,6.779,6.779,0,0,0,2.313.4,4.166,4.166,0,0,0,2.34-.531,1.637,1.637,0,0,0,.774-1.413,1.392,1.392,0,0,0-.423-1.053A2.829,2.829,0,0,0,19.071-5q-.621-.216-1.755-.486a18.086,18.086,0,0,1-2.3-.684,3.8,3.8,0,0,1-1.494-1.053,2.812,2.812,0,0,1-.621-1.917,3.243,3.243,0,0,1,.531-1.818,3.647,3.647,0,0,1,1.611-1.3,6.535,6.535,0,0,1,2.682-.486,8.487,8.487,0,0,1,2.2.288,5.842,5.842,0,0,1,1.854.828l-.594,1.44a6.517,6.517,0,0,0-1.692-.765,6.315,6.315,0,0,0-1.764-.261,3.887,3.887,0,0,0-2.3.558,1.709,1.709,0,0,0-.765,1.44A1.377,1.377,0,0,0,15.1-8.163a3,3,0,0,0,1.071.63,16.734,16.734,0,0,0,1.737.477,17.6,17.6,0,0,1,2.286.684,3.848,3.848,0,0,1,1.485,1.044,2.75,2.75,0,0,1,.621,1.89,3.217,3.217,0,0,1-.54,1.809,3.617,3.617,0,0,1-1.638,1.3A6.775,6.775,0,0,1,17.424.144ZM33.3-4.716a4.952,4.952,0,0,1-.036.522h-7.74a3,3,0,0,0,1.107,2.025A3.613,3.613,0,0,0,28.98-1.4a3.539,3.539,0,0,0,2.754-1.152l.954,1.116A4.179,4.179,0,0,1,31.077-.288a5.607,5.607,0,0,1-2.151.4,5.634,5.634,0,0,1-2.682-.621A4.429,4.429,0,0,1,24.435-2.25,4.98,4.98,0,0,1,23.8-4.77a5.057,5.057,0,0,1,.621-2.5,4.449,4.449,0,0,1,1.71-1.737,4.871,4.871,0,0,1,2.457-.621,4.773,4.773,0,0,1,2.439.621A4.361,4.361,0,0,1,32.7-7.272,5.292,5.292,0,0,1,33.3-4.716ZM28.584-8.172a2.987,2.987,0,0,0-2.079.756,3.048,3.048,0,0,0-.981,1.98h6.12a3.068,3.068,0,0,0-.981-1.971A2.966,2.966,0,0,0,28.584-8.172Zm8.766.234A2.948,2.948,0,0,1,38.682-9.2a4.834,4.834,0,0,1,2.142-.432v1.674a3.374,3.374,0,0,0-.4-.018,2.907,2.907,0,0,0-2.205.837,3.313,3.313,0,0,0-.8,2.385V0H35.694V-9.54H37.35Zm14.436-1.6L47.61,0H45.846L41.67-9.54h1.8l3.276,7.65,3.348-7.65Zm1.62,0h1.728V0H53.406Zm.864-1.836a1.152,1.152,0,0,1-.837-.324,1.063,1.063,0,0,1-.333-.792,1.092,1.092,0,0,1,.333-.8,1.135,1.135,0,0,1,.837-.333,1.17,1.17,0,0,1,.837.315,1.034,1.034,0,0,1,.333.783,1.113,1.113,0,0,1-.333.819A1.135,1.135,0,0,1,54.27-11.376ZM62.586.108a5.3,5.3,0,0,1-2.6-.63,4.616,4.616,0,0,1-1.791-1.737,4.877,4.877,0,0,1-.648-2.511,4.877,4.877,0,0,1,.648-2.511,4.552,4.552,0,0,1,1.791-1.728,5.36,5.36,0,0,1,2.6-.621,4.993,4.993,0,0,1,2.313.522A3.718,3.718,0,0,1,66.474-7.6L65.16-6.75a2.936,2.936,0,0,0-1.116-1.026,3.183,3.183,0,0,0-1.476-.342,3.413,3.413,0,0,0-1.683.414,2.95,2.95,0,0,0-1.17,1.179,3.566,3.566,0,0,0-.423,1.755A3.6,3.6,0,0,0,59.715-3a2.95,2.95,0,0,0,1.17,1.179,3.413,3.413,0,0,0,1.683.414,3.183,3.183,0,0,0,1.476-.342A2.936,2.936,0,0,0,65.16-2.772l1.314.828A3.774,3.774,0,0,1,64.9-.423,4.923,4.923,0,0,1,62.586.108Zm6.12-9.648h1.728V0H68.706Zm.864-1.836a1.152,1.152,0,0,1-.837-.324,1.063,1.063,0,0,1-.333-.792,1.092,1.092,0,0,1,.333-.8,1.135,1.135,0,0,1,.837-.333,1.17,1.17,0,0,1,.837.315,1.034,1.034,0,0,1,.333.783,1.113,1.113,0,0,1-.333.819A1.135,1.135,0,0,1,69.57-11.376ZM77.814.108a5.173,5.173,0,0,1-2.556-.63,4.569,4.569,0,0,1-1.773-1.737,4.931,4.931,0,0,1-.639-2.511,4.931,4.931,0,0,1,.639-2.511,4.506,4.506,0,0,1,1.773-1.728,5.233,5.233,0,0,1,2.556-.621,5.182,5.182,0,0,1,2.547.621,4.522,4.522,0,0,1,1.764,1.728,4.931,4.931,0,0,1,.639,2.511,4.931,4.931,0,0,1-.639,2.511A4.586,4.586,0,0,1,80.361-.522,5.123,5.123,0,0,1,77.814.108Zm0-1.512a3.221,3.221,0,0,0,1.647-.423A2.986,2.986,0,0,0,80.6-3.015a3.629,3.629,0,0,0,.414-1.755A3.629,3.629,0,0,0,80.6-6.525,2.924,2.924,0,0,0,79.461-7.7a3.276,3.276,0,0,0-1.647-.414,3.276,3.276,0,0,0-1.647.414,2.985,2.985,0,0,0-1.152,1.179,3.566,3.566,0,0,0-.423,1.755,3.566,3.566,0,0,0,.423,1.755,3.048,3.048,0,0,0,1.152,1.188A3.221,3.221,0,0,0,77.814-1.4ZM87.894.108a8,8,0,0,1-2.25-.315,4.941,4.941,0,0,1-1.692-.8l.72-1.368a5.168,5.168,0,0,0,1.53.72,6.3,6.3,0,0,0,1.818.27q2.268,0,2.268-1.3a.839.839,0,0,0-.306-.684,1.937,1.937,0,0,0-.765-.369Q88.758-3.852,87.912-4a12.789,12.789,0,0,1-1.881-.414A2.9,2.9,0,0,1,84.78-5.2a2.2,2.2,0,0,1-.522-1.566,2.446,2.446,0,0,1,1.08-2.079,4.837,4.837,0,0,1,2.9-.783,7.984,7.984,0,0,1,1.908.234,5.131,5.131,0,0,1,1.566.63L90.972-7.4a4.962,4.962,0,0,0-2.754-.756,3.183,3.183,0,0,0-1.674.36,1.086,1.086,0,0,0-.576.954.91.91,0,0,0,.324.738,2.049,2.049,0,0,0,.8.4q.477.126,1.341.288a14.554,14.554,0,0,1,1.863.423,2.782,2.782,0,0,1,1.215.765,2.131,2.131,0,0,1,.5,1.512A2.384,2.384,0,0,1,90.909-.657,5.228,5.228,0,0,1,87.894.108ZM-92.538,1H-4.314V2H-92.538ZM3.393,1H92.538V2H3.393Z" transform="translate(129 2659)"/>
  </g>
</svg>
