<svg xmlns="http://www.w3.org/2000/svg" width="431.495" height="480.985" viewBox="0 0 431.495 480.985">
  <g id="img-khao" transform="translate(63.381 -56.073)">
    <path id="Unión_1" data-name="Unión 1" d="M-1125.055-1579.558a87,87,0,0,1,47.489-77.5,46.274,46.274,0,0,1-23.718-40.4,46.365,46.365,0,0,1,46.422-46.308,46.365,46.365,0,0,1,46.422,46.308,46.1,46.1,0,0,1-13.24,32.384,87.26,87.26,0,0,1,66.135,56.9,54.179,54.179,0,0,1,51.615-37.592,54.1,54.1,0,0,1,54.169,54.037,54.1,54.1,0,0,1-54.169,54.036,54.182,54.182,0,0,1-47.8-28.587,87.141,87.141,0,0,1-86.16,73.75A87.094,87.094,0,0,1-1125.055-1579.558Z" transform="translate(-853.154 1937.975) rotate(65)" fill="rgba(32,155,39,0.3)"/>
    <g id="box-illustration" transform="translate(257.651 487.836) rotate(-171)">
      <path id="Trazado_132" data-name="Trazado 132" d="M83.039,12.89,24.42,0,0,9.861,53.817,21.424Z" transform="translate(0 141.527)" fill="#bababa"/>
      <path id="Trazado_133" data-name="Trazado 133" d="M0,24.19l33.228,6.077L105.473,7.73,79.527,0Z" transform="translate(83.039 130.227)" fill="#bababa"/>
      <path id="Trazado_134" data-name="Trazado 134" d="M0,20.031l58.619,12.89L138.146,8.73,83.213,0Z" transform="translate(24.42 121.496)" fill="#16691a"/>
      <path id="Trazado_135" data-name="Trazado 135" d="M104.245,134.716A55.593,55.593,0,0,0,89.229,99.74C78.924,88.845,64.986,84.3,50.93,80.3,38.362,76.728,25.409,73.015,15.007,64.74A38.71,38.71,0,0,1,.1,31.6C1.131,17.734,10.079,5.917,22.578.208c2.606-1.19,3.953,3.056,1.376,4.234A33.308,33.308,0,0,0,4.471,36.057C5.13,49.8,14.088,60.2,25.794,66.486c12.05,6.467,25.618,8.842,38.45,13.223C76.056,83.74,86.718,89.675,94.8,99.352a60.1,60.1,0,0,1,13.89,35.122C108.849,137.338,104.4,137.576,104.245,134.716Z" transform="translate(125.743 121.993)" fill="#d9a717"/>
      <path id="Trazado_136" data-name="Trazado 136" d="M113.69,133.631c-22.685-14.316-49.371-19.6-73.526-30.734C28.643,97.588,17.321,90.734,8.73,81.257.255,71.91-1.754,60.5,1.428,48.445,5.643,32.467,17.473,19.009,18.581,2.166c.188-2.843,4.639-2.913,4.451-.053-.919,13.96-8.566,25.464-13.972,37.969-5.25,12.144-7.459,25.8,1.651,36.7,16.49,19.723,43.47,27.267,66.726,35.548,13.292,4.734,26.511,9.892,38.488,17.451C118.338,131.3,116.122,135.166,113.69,133.631Z" transform="translate(107.361 110.188)" fill="#f9c432"/>
      <path id="Trazado_137" data-name="Trazado 137" d="M95.929,138.893c-24.012-14.576-54.443-13.414-77.514-30.057C9.69,102.542.9,92.743.05,81.516c-.5-6.629,2.839-12.306,6.565-17.5,3.887-5.42,7.426-10.763,9.834-17.027a63.745,63.745,0,0,0,.913-43.34c-1.031-3,3.434-5.236,4.477-2.2a68.5,68.5,0,0,1,2.906,33.965C22.59,47.928,16.986,57.821,9.837,68.092,5.179,74.786,3.587,81.144,7.224,88.716a41.844,41.844,0,0,0,11.971,14.468c9.73,7.659,21.547,11.92,33.345,15.215,15.806,4.415,31.995,7.747,46.2,16.368C101.479,136.432,98.673,140.559,95.929,138.893Z" transform="translate(39.071 106.008)" fill="#d9a717"/>
      <path id="Trazado_138" data-name="Trazado 138" d="M181.071,7.132,2.42,0A2.328,2.328,0,0,0,0,2.225H0A2.327,2.327,0,0,0,2.216,4.651L180.8,13.208" transform="translate(185.89 264.725)" fill="#474726"/>
      <path id="Trazado_139" data-name="Trazado 139" d="M154.232,204.337c-3.582-18.561-13.516-35.665-28.552-47.271-18.873-14.565-42.7-14.981-65.38-17.547-18.849-2.133-39.451-6.992-52.307-22.077-5.846-6.86-9.4-15.471-7.46-24.543C2.6,83.266,9.6,75.542,15.371,67.913,29.426,49.325,32.583,24.6,20.955,3.878c-1.566-2.791,2.624-5.5,4.2-2.694a62.993,62.993,0,0,1,3.813,53.124c-3.643,9.5-10.141,16.921-16.065,25.028-7.242,9.911-11.033,20.75-3.528,31.756,12.038,17.654,35.479,21.853,55.215,23.9,21.863,2.268,44.089,3.625,62.512,16.944,16.663,12.047,28,30.759,31.877,50.86C159.579,205.913,154.839,207.484,154.232,204.337Z" transform="translate(59.226 72.418)" fill="#d9a717"/>
      <path id="Trazado_140" data-name="Trazado 140" d="M158.787,193.626c.452-23.653-31.165-33.348-49.812-34.654-12.291-.861-24.4,1.677-36.637,2.247a69.945,69.945,0,0,1-29.048-4.5A70.178,70.178,0,0,1,4.338,118.694C.5,109.4-1.513,98.408,1.35,88.557c3-10.328,11.248-16.524,18.268-24.063,8.741-9.387,12.542-22.555,8.873-35.05-3.621-12.328-14.1-21.628-26.505-24.5C-1.14,4.224-.086-.652,3.049.073A40.721,40.721,0,0,1,34.4,45.347c-1.572,10.959-7.589,19.242-15.335,26.774-4.074,3.963-8.4,7.933-11.047,13.045-2.886,5.571-3.4,11.974-2.677,18.122,2.508,21.359,18.749,39.756,38.058,48.106,10.627,4.6,21.783,5.47,33.224,4.54,12.543-1.019,24.834-3,37.435-1.447,20.1,2.471,50.188,14.212,49.716,38.868C163.709,196.552,158.726,196.839,158.787,193.626Z" transform="translate(82.128 85.317)" fill="#f9c432"/>
      <path id="Trazado_141" data-name="Trazado 141" d="M172.944,195.554c-9.356-18.849-25.97-32.67-45.3-40.553a101.069,101.069,0,0,0-29.231-7.036c-13.014-1.138-26.089.142-39.123-.144-20.911-.459-44.73-5.846-55.308-25.97A33.8,33.8,0,0,1,2.062,94.3c3.629-10.183,10.716-18.527,16.4-27.572,6.5-10.331,9.9-21.357,7.946-33.6A45.4,45.4,0,0,0,9.248,4.223C6.7,2.274,10.088-1.39,12.626.551,27.7,12.08,34.98,32.482,30.854,51c-2.366,10.619-8.827,19.418-14.826,28.253C9.815,88.4,3.373,98.69,5.2,110.263c4.04,25.619,33.788,32.317,55.365,32.6,12.566.166,25.14-.9,37.692.124a107.148,107.148,0,0,1,29.414,6.691c20.962,7.968,39.418,22.916,49.476,43.179C178.557,195.708,174.372,198.432,172.944,195.554Z" transform="translate(65.692 72.919)" fill="#f9d368"/>
      <path id="Trazado_142" data-name="Trazado 142" d="M176.3,193.957c-3.06-20.761-20.883-35.52-39.917-41.742-23.5-7.683-48.022-4.174-72.22-4.764-20.673-.5-43.854-5.207-56.774-22.991A37.23,37.23,0,0,1,.223,98.609c1.311-11.123,8.714-19.885,14.665-28.9,7.275-11.023,13.588-23.877,12.981-37.42-.5-11.11-5.776-22.147-15.807-27.553C9.24,3.214,11.547-1.212,14.383.316,32.546,10.1,36.01,32.962,29.9,51.064,26.038,62.5,19.113,71.9,12.579,81.875,6.192,91.631,2.8,101.964,7.017,113.342c9.05,24.4,38.884,29.137,61.526,29.182,24.156.048,48.612-2.545,71.843,5.828,20.143,7.26,37.664,23.422,40.895,45.334C181.75,196.866,176.762,197.108,176.3,193.957Z" transform="translate(49.665 79.826)" fill="#f9c432"/>
      <path id="Trazado_143" data-name="Trazado 143" d="M155.3,187c-2.627-17.142-16.746-29.588-31.71-36.658C104.5,141.321,83,138.109,63.1,131.252,45.569,125.21,25.391,118.7,12.121,105.094,6.755,99.591,2.474,92.811.783,85.248-1.169,76.518.748,67.8,4.109,59.674,10.961,43.11,28.575,22.427,17.543,3.855,15.9,1.1,20.1-1.608,21.741,1.16c8.541,14.377,2.074,31.176-5.1,44.655C11.9,54.726,6.439,63.826,5.166,74.026c-1.2,9.655,2.651,18.9,9.038,26.02,6.646,7.407,15.5,12.292,24.465,16.335A305.953,305.953,0,0,0,69.586,128.2c19.592,6.387,40.672,9.583,59.117,19.1,15.535,8.018,28.847,21.617,31.577,39.427C160.767,189.9,155.78,190.143,155.3,187Z" transform="translate(91.654 87.712)" fill="#f9d368"/>
      <g id="Grupo_112" data-name="Grupo 112" transform="translate(91.262 208.295)">
        <path id="Trazado_144" data-name="Trazado 144" d="M11.2,19.782a5.069,5.069,0,0,1-3.847-.354,6.692,6.692,0,0,1-2.563-2.9C2.185,11.476,3.1,5.037,0,.27,3.713-.391,7.655.08,10.466,2.594a15.382,15.382,0,0,1,4.863,9.926,8.809,8.809,0,0,1-.372,3.953A5.655,5.655,0,0,1,11.2,19.782Z" transform="translate(0 0)" fill="#c0321a"/>
        <path id="Trazado_145" data-name="Trazado 145" d="M1.293,2.225A3.708,3.708,0,0,0,3.179,2.01a1.316,1.316,0,0,0,.442-.244,1.173,1.173,0,0,0,.271-.422C4.362.214,4-.086,2.916.02A7.2,7.2,0,0,0,.631.576C-.665,1.19.278,2.055,1.293,2.225Z" transform="translate(9.136 18.155)" fill="#6fad2c"/>
        <path id="Trazado_146" data-name="Trazado 146" d="M2.18,7.2a.463.463,0,0,1-.609.43.646.646,0,0,1-.117.032l-.861.055A.575.575,0,0,1,.519,6.57l.555-.036A33.787,33.787,0,0,0,.888.59C.8-.146,1.948-.218,2.036.515A35.1,35.1,0,0,1,2.18,7.2Z" transform="translate(9.88 19.352)" fill="#6fad2c"/>
        <path id="Trazado_147" data-name="Trazado 147" d="M7.441,7.988C6.119,4.84,4.168,1.556.447,1.131-.288,1.047-.051-.079.681,0c4.127.471,6.376,4.1,7.848,7.608C8.816,8.3,7.727,8.668,7.441,7.988Z" transform="translate(4.478 1.172)" fill="#fff" opacity="0.1"/>
        <path id="Trazado_148" data-name="Trazado 148" d="M.038,1.167,0,.593A.575.575,0,0,1,1.149.519l.037.574A.575.575,0,0,1,.038,1.167Z" transform="translate(12.476 10.788)" fill="#fff" opacity="0.1"/>
      </g>
      <g id="Grupo_113" data-name="Grupo 113" transform="translate(113.35 145.081)">
        <path id="Trazado_149" data-name="Trazado 149" d="M9.041.688a6.874,6.874,0,0,0-6.593.326,2.86,2.86,0,0,0-1.5,1.949c-.1.844.62,1.786,1.456,1.639A6.666,6.666,0,0,0,.719,6.123a1.924,1.924,0,0,0-.6,1.893,1.187,1.187,0,0,0,1.665.7A6.165,6.165,0,0,0,.031,13.642c.117,1.029.87,2.2,1.888,2.014a2.128,2.128,0,0,0,.966-.562,11.746,11.746,0,0,0,2.4-2.927c-.212.747.733,1.64,1.508,1.594a2.084,2.084,0,0,0,1.691-1.409,6.138,6.138,0,0,0,.266-2.3,2,2,0,0,0,2.524.288,2.642,2.642,0,0,0,.79-1.022A6.226,6.226,0,0,0,9.041.688Z" transform="translate(0 3.45)" fill="#6fad2c"/>
        <path id="Trazado_150" data-name="Trazado 150" d="M.695,11.787c-.3.368-.915-.046-.614-.417Q4.728,5.644,9.631.134c.313-.351.931.061.614.417Q5.341,6.06.695,11.787Z" transform="translate(4.48 0)" fill="#518020"/>
      </g>
      <g id="Grupo_114" data-name="Grupo 114" transform="translate(173.162 208.682)">
        <path id="Trazado_151" data-name="Trazado 151" d="M1.54,7.409C.137,6.185-.522,4.036.488,2.484A5.8,5.8,0,0,1,4.355.414,21.6,21.6,0,0,1,9.989.047a5.561,5.561,0,0,1,2.064.441c3.472,1.685,2.038,5.594-.6,7.345C8.611,9.713,4.1,9.641,1.54,7.409Z" transform="translate(0 6.926)" fill="#d99064"/>
        <path id="Trazado_152" data-name="Trazado 152" d="M5.181,13.225C-.564,13.7.016,9.806.016,9.806c2.042,1.3,2.447-1.876,2.466-2.033C2.279,6.05,1.84,4.347,1.8,2.6,1.767.873,3.6-.007,5.111,0,7.581.012,7.7,1.193,7.75,3.326c.03,1.285.087,2.571.086,3.857h0c.046,2.4,2.72,1.652,2.72,1.652C10.744,9.43,10.926,12.747,5.181,13.225Z" transform="translate(1.617 0)" fill="#ffd6bd"/>
        <path id="Trazado_153" data-name="Trazado 153" d="M2.537,0c.144.864.368,2.278-.3,2.846a1.674,1.674,0,0,1-.763.348A1.443,1.443,0,0,1,.381,3.038a.809.809,0,0,1-.312-.99C1.156,2.282,2.281,1.082,2.537,0Z" transform="translate(1.565 7.759)" fill="#b85f3e"/>
        <path id="Trazado_154" data-name="Trazado 154" d="M.034,0c-.075.873-.089,2.1.62,2.619a1.683,1.683,0,0,0,.789.286,1.441,1.441,0,0,0,1.079-.243.808.808,0,0,0,.232-1.011A2.461,2.461,0,0,1,.034,0Z" transform="translate(9.419 7.182)" fill="#b85f3e"/>
      </g>
      <g id="Grupo_115" data-name="Grupo 115" transform="translate(111.33 221.182)">
        <path id="Trazado_155" data-name="Trazado 155" d="M.118,3.674A2.914,2.914,0,0,1,1.493.205,4.292,4.292,0,0,1,4.727.518,15.974,15.974,0,0,1,8.353,2.607a4.109,4.109,0,0,1,1.091,1.12C10.892,6.192,8.4,8.014,6.053,8.007A6.47,6.47,0,0,1,.118,3.674Z" transform="translate(0 3.55)" fill="#d99064"/>
        <path id="Trazado_156" data-name="Trazado 156" d="M2.292,8.7C-1.446,6.635.513,4.469.513,4.469c.724,1.641,2.28-.151,2.355-.24C3.451,3.084,3.881,1.854,4.575.762S6.757-.107,7.684.517c1.518,1.022,1.106,1.8.261,3.135-.51.8-1,1.621-1.532,2.413h0c-.958,1.5,1,2.135,1,2.135C7.282,8.646,6.031,10.766,2.292,8.7Z" transform="translate(1.524 0)" fill="#ffd6bd"/>
        <path id="Trazado_157" data-name="Trazado 157" d="M2.624,0c-.266.591-.708,1.556-1.353,1.633a1.255,1.255,0,0,1-.614-.1A1.073,1.073,0,0,1,.047.987.6.6,0,0,1,.262.248,1.854,1.854,0,0,0,2.624,0Z" transform="translate(1.775 4.221)" fill="#b85f3e"/>
        <path id="Trazado_158" data-name="Trazado 158" d="M.749,0C.344.507-.17,1.26.055,1.869a1.246,1.246,0,0,0,.369.5,1.067,1.067,0,0,0,.765.294.6.6,0,0,0,.559-.528A1.823,1.823,0,0,1,.749,0Z" transform="translate(7.187 6.066)" fill="#b85f3e"/>
      </g>
      <g id="Grupo_116" data-name="Grupo 116" transform="translate(31.718 150.081)">
        <path id="Trazado_159" data-name="Trazado 159" d="M49.094,42.184c-7.159,10.1-21.174,14.163-33.119,10.924A22.672,22.672,0,0,1,5.5,47.372C.462,42.172-.664,34.213.328,27.039,1.748,16.778,7.513,6.689,16.852,2.209,32.3-5.2,49.121,7.166,52.68,22.632A24.239,24.239,0,0,1,49.094,42.184Z" transform="translate(0 0)" fill="#fff"/>
        <path id="Trazado_160" data-name="Trazado 160" d="M16.135,26.93c-4.821.6-10.4-1.881-13.571-5.521A11.408,11.408,0,0,1,.022,13.287c.927-16,22.545-18.546,25.965-2.146C27.282,17.357,22.818,26.1,16.135,26.93Z" transform="translate(8.65 16.329)" fill="#ff8a17"/>
        <path id="Trazado_161" data-name="Trazado 161" d="M4.75,1.41C6.456,5.692,10.315,7.853,14.835,6.6c3.226-.9,4.5,4.138,1.279,5.032A13.126,13.126,0,0,1,.206,3.925C-1.013.864,3.513-1.7,4.75,1.41Z" transform="translate(10.947 28.798)" fill="#fff" opacity="0.1"/>
        <path id="Trazado_162" data-name="Trazado 162" d="M1.158,1.265A2.838,2.838,0,0,1,2.75.075,2.638,2.638,0,0,1,4.716.36,2.619,2.619,0,0,1,5.905,1.951a2.5,2.5,0,0,1-.284,1.967,4.617,4.617,0,0,0-.391.606c-.049.144-.107.285-.143.435A2.621,2.621,0,0,1,1.9,6.777,2.652,2.652,0,0,1,.079,3.586,6.218,6.218,0,0,1,1.158,1.265Z" transform="translate(12.008 20.656)" fill="#fff" opacity="0.1"/>
        <path id="Trazado_213" data-name="Trazado 213" d="M216.78,202.581" transform="translate(41.29 38.586)" fill="none" stroke="#707070" stroke-width="1"/>
      </g>
      <g id="Grupo_117" data-name="Grupo 117" transform="translate(61.153 128.318)">
        <path id="Trazado_163" data-name="Trazado 163" d="M1.594,4.361A2.254,2.254,0,0,1,.107,1.582,2.268,2.268,0,0,1,2.888.1a2.254,2.254,0,0,1,1.485,2.78A2.267,2.267,0,0,1,1.594,4.361Z" transform="translate(54.337 0)" fill="#e32d31"/>
        <path id="Trazado_164" data-name="Trazado 164" d="M1.754,5.037C-1.407,4.077.079-.837,3.244.124S4.921,6,1.754,5.037Z" transform="translate(89.24 108.558)" fill="#e32d31"/>
        <path id="Trazado_165" data-name="Trazado 165" d="M1.5,4.312C-1.2,3.491.067-.717,2.778.106S4.213,5.135,1.5,4.312Z" transform="translate(14.654 70.86)" fill="#e32d31"/>
        <path id="Trazado_166" data-name="Trazado 166" d="M3.581,5.092a2.485,2.485,0,0,1-1.861.184A2.494,2.494,0,0,1,.091,2.227,4.54,4.54,0,0,1,.527,1.137,2.448,2.448,0,0,1,3.286.11,2.474,2.474,0,0,1,5.011,2.5a4.479,4.479,0,0,1-.243,1.149A2.557,2.557,0,0,1,3.581,5.092Z" transform="translate(0 8.637)" fill="#e32d31"/>
        <path id="Trazado_167" data-name="Trazado 167" d="M1.8,3.691l-.51-.127A1.827,1.827,0,0,1,.084,1.3,1.838,1.838,0,0,1,2.347.092l.5.178A1.818,1.818,0,0,1,4.033,2.5,1.827,1.827,0,0,1,1.8,3.691Z" transform="translate(151.666 113.061)" fill="#e32d31"/>
        <path id="Trazado_168" data-name="Trazado 168" d="M1.418,4.071C-1.137,3.3.063-.677,2.623.1S3.978,4.848,1.418,4.071Z" transform="translate(176.425 125.864)" fill="#e32d31"/>
        <path id="Trazado_169" data-name="Trazado 169" d="M1.733,4.976C-1.39,4.028.078-.827,3.206.122S4.861,5.925,1.733,4.976Z" transform="translate(67.35 41.251)" fill="#e32d31"/>
        <path id="Trazado_170" data-name="Trazado 170" d="M1.857,5.083A2.626,2.626,0,0,1,.125,1.843,2.643,2.643,0,0,1,3.365.111,2.628,2.628,0,0,1,5.1,3.352,2.643,2.643,0,0,1,1.857,5.083Z" transform="translate(128.136 78.748)" fill="#e32d31"/>
        <path id="Trazado_171" data-name="Trazado 171" d="M1.3,3.74A1.907,1.907,0,0,1,2.409.092,1.907,1.907,0,0,1,1.3,3.74Z" transform="translate(15.357 39.506)" fill="#e32d31"/>
        <path id="Trazado_172" data-name="Trazado 172" d="M2.059,5.912C-1.651,4.786.092-.981,3.808.145S5.775,7.039,2.059,5.912Z" transform="translate(18.087 25.843)" fill="#e32d31"/>
        <path id="Trazado_173" data-name="Trazado 173" d="M1.261,3.619A1.845,1.845,0,0,1,2.331.089,1.845,1.845,0,0,1,1.261,3.619Z" transform="translate(54.216 69.969)" fill="#e32d31"/>
      </g>
      <g id="Grupo_134" data-name="Grupo 134" transform="translate(53.761 135.554)">
        <g id="Grupo_133" data-name="Grupo 133" transform="translate(0 0)">
          <g id="Grupo_118" data-name="Grupo 118" transform="translate(29.742 50.201)">
            <path id="Trazado_174" data-name="Trazado 174" d="M0,2.1A5.988,5.988,0,0,0,1.791,0a2.842,2.842,0,0,0,1.45,1.244A4.454,4.454,0,0,1,.361,3.62,2.125,2.125,0,0,0,0,2.1Z" fill="#518020"/>
          </g>
          <g id="Grupo_119" data-name="Grupo 119" transform="translate(108.923 69.147)">
            <path id="Trazado_175" data-name="Trazado 175" d="M1.83,3.327A6,6,0,0,0,0,1.265,2.845,2.845,0,0,0,1.431,0,4.456,4.456,0,0,1,3.39,3.178,2.132,2.132,0,0,0,1.83,3.327Z" transform="translate(0 0)" fill="#518020"/>
          </g>
          <g id="Grupo_120" data-name="Grupo 120" transform="translate(138.707 111.871)">
            <path id="Trazado_176" data-name="Trazado 176" d="M1.9,3.313a5.978,5.978,0,0,0-1.9-2A2.838,2.838,0,0,0,1.389,0,4.455,4.455,0,0,1,3.45,3.113,2.127,2.127,0,0,0,1.9,3.313Z" fill="#518020"/>
          </g>
          <g id="Grupo_121" data-name="Grupo 121" transform="translate(33.46 20.692)">
            <path id="Trazado_177" data-name="Trazado 177" d="M.232,1.279A6,6,0,0,0,2.674,0a2.842,2.842,0,0,0,.883,1.693A4.454,4.454,0,0,1,0,2.828,2.125,2.125,0,0,0,.232,1.279Z" transform="translate(0 0)" fill="#518020"/>
          </g>
          <g id="Grupo_122" data-name="Grupo 122" transform="translate(148.631 87.912)">
            <path id="Trazado_178" data-name="Trazado 178" d="M6.277,8.594,3.272,10.312S4.546,4.479,0,.958L2.581,0A10.854,10.854,0,0,1,6.277,8.594Z" transform="translate(0 0)" fill="#518020"/>
          </g>
          <g id="Grupo_123" data-name="Grupo 123" transform="translate(125.941 105.441)">
            <path id="Trazado_179" data-name="Trazado 179" d="M5.163,0,6.48,1.773S2.688,1.411.8,4.559L0,3A6.925,6.925,0,0,1,5.163,0Z" transform="translate(0 0)" fill="#518020"/>
          </g>
          <g id="Grupo_124" data-name="Grupo 124" transform="translate(38.206 4.664)">
            <path id="Trazado_180" data-name="Trazado 180" d="M2.233,3.163A5.994,5.994,0,0,0,0,1.545,2.838,2.838,0,0,0,1.124,0a4.455,4.455,0,0,1,2.6,2.681A2.124,2.124,0,0,0,2.233,3.163Z" transform="translate(0)" fill="#518020"/>
          </g>
          <g id="Grupo_125" data-name="Grupo 125" transform="translate(24.784 0)">
            <path id="Trazado_181" data-name="Trazado 181" d="M4.523,0,6.144,1.5S2.35,1.843,1.078,5.285L0,3.9A6.928,6.928,0,0,1,4.523,0Z" transform="translate(0 0)" fill="#518020"/>
          </g>
          <g id="Grupo_126" data-name="Grupo 126" transform="translate(47.412 37.596)">
            <path id="Trazado_182" data-name="Trazado 182" d="M0,2.617.557,0s2.7,3.739,7.073,2.93L6.854,4.913A8.383,8.383,0,0,1,0,2.617Z" transform="translate(0 0)" fill="#518020"/>
          </g>
          <g id="Grupo_127" data-name="Grupo 127" transform="translate(0 35.542)">
            <path id="Trazado_183" data-name="Trazado 183" d="M6.194,5.694,4.286,7.57S4.091,2.96,0,1.226L1.74,0A8.386,8.386,0,0,1,6.194,5.694Z" transform="translate(0 0)" fill="#518020"/>
          </g>
          <g id="Grupo_128" data-name="Grupo 128" transform="translate(93.099 75.071)">
            <path id="Trazado_184" data-name="Trazado 184" d="M0,.908A11.782,11.782,0,0,0,2.9,7.282,2.9,2.9,0,0,0,4.4,8.307,7.531,7.531,0,0,1,6.355,6.325,6.935,6.935,0,0,1,4.951.013,9.873,9.873,0,0,0,0,.908Z" transform="translate(0 0)" fill="#518020"/>
          </g>
          <g id="Grupo_129" data-name="Grupo 129" transform="translate(85.684 96.715)">
            <path id="Trazado_185" data-name="Trazado 185" d="M1.484,0A6,6,0,0,0,3.739,1.588a2.841,2.841,0,0,0-1.1,1.559A4.456,4.456,0,0,1,0,.5,2.129,2.129,0,0,0,1.484,0Z" transform="translate(0 0)" fill="#518020"/>
          </g>
          <g id="Grupo_130" data-name="Grupo 130" transform="translate(165.676 118.297)">
            <path id="Trazado_186" data-name="Trazado 186" d="M1.143,2.391a6,6,0,0,1,2.709-.513A2.839,2.839,0,0,1,3.493,0,4.454,4.454,0,0,0,0,1.319,2.134,2.134,0,0,1,1.143,2.391Z" transform="translate(0 0)" fill="#518020"/>
          </g>
          <g id="Grupo_131" data-name="Grupo 131" transform="translate(80.274 101.512)">
            <path id="Trazado_187" data-name="Trazado 187" d="M6.5,0,9.243,2.108S3.372,3.188,1.882,8.74L0,6.731A10.854,10.854,0,0,1,6.5,0Z" transform="translate(0 0)" fill="#518020"/>
          </g>
          <g id="Grupo_132" data-name="Grupo 132" transform="translate(173.482 107.001)">
            <path id="Trazado_188" data-name="Trazado 188" d="M0,1.876,1.907,0S2.1,4.61,6.194,6.343L4.453,7.569A8.383,8.383,0,0,1,0,1.876Z" transform="translate(0 0)" fill="#518020"/>
          </g>
        </g>
      </g>
      <g id="Grupo_135" data-name="Grupo 135" transform="translate(133.003 186.231)">
        <path id="Trazado_189" data-name="Trazado 189" d="M6.709,3.959c.336-.235.679-.459,1.029-.66q.59-.34,1.212-.629C9.092.741,11.771-.768,13.373,1.159c.058.07.11.14.158.21.391-.041.783-.066,1.175-.071A2.17,2.17,0,0,0,16.225.736,1.658,1.658,0,0,1,16.4.581,2.505,2.505,0,0,1,18.217.017,2.584,2.584,0,0,1,19.9.9a2.566,2.566,0,0,1,.564,1.816c-.006.063-.016.128-.028.193a9.533,9.533,0,0,1,1.7,1.478,2.591,2.591,0,0,0,2.042.838,2.093,2.093,0,0,1,1.734.816,2.179,2.179,0,0,1-.437,3.235,1.389,1.389,0,0,0-.561,1.274v.009a2.207,2.207,0,0,1,.388.363,1.905,1.905,0,0,1,.472,1.451,2.611,2.611,0,0,0,.317,1.58,1.817,1.817,0,0,1,.225.662l0,.038A2.18,2.18,0,0,1,25.1,16.945a1.877,1.877,0,0,1-.393.128,2.987,2.987,0,0,0-1.773,1.042c-.137.178-.28.35-.428.518a3.72,3.72,0,0,0-.947,1.894,2.46,2.46,0,0,1-2.9,1.992l-1.365.7a2.534,2.534,0,0,1-4.277.7l-.007-.009a.731.731,0,0,0-1.048-.127,1.793,1.793,0,0,1-2.685-.134,1.762,1.762,0,0,1-.44-1.182.9.9,0,0,0-.448-.816l-.005,0a9.4,9.4,0,0,1-1.217-.836.856.856,0,0,0-.849-.113,3.078,3.078,0,0,1-1.527.2A3.548,3.548,0,0,1,1.58,17.049a2.664,2.664,0,0,1,.409-1.294,2.647,2.647,0,0,1,.267-.491.878.878,0,0,0,.117-.8c-.018-.049-.035-.1-.052-.147a.884.884,0,0,0-.568-.545,2.567,2.567,0,0,1-1.137-.813,2.6,2.6,0,0,1,1.3-4.14,2.118,2.118,0,0,0,1.138-.957l.009-.016a2.164,2.164,0,0,0,.249-1.433A2.418,2.418,0,0,1,6.709,3.959Z" transform="translate(0 0)" fill="#fff"/>
        <path id="Trazado_190" data-name="Trazado 190" d="M15.854,3.843c.294.648-.692,1.329-1.1.689C11.972.2,7.418,1.025,4.057,4.253.871,7.311.289,12.948,4.9,15.072c4.638,2.137,8.391-2.241,7.485-6.733C11.732,5.106,7.817,5.6,6.342,7.968c-.615.988-.939,2.727.062,3.613,2.249,1.992,3.212-1.7,3.639-2.756.2-.506,1.045-.366.965.215-.264,1.9-1.4,4.511-3.732,4.391-2.077-.106-3.1-2.463-2.836-4.289.629-4.324,7.6-6.773,9.15-1.807s-1.982,10.593-7.526,9.63C.956,16.078-1.47,10.247.933,5.8,3.769.559,12.68-3.151,15.854,3.843Z" transform="translate(5.688 3.867)" fill="#fd86a6"/>
      </g>
      <g id="Grupo_136" data-name="Grupo 136" transform="translate(197.436 245.025)">
        <path id="Trazado_191" data-name="Trazado 191" d="M14.717,5.832c.085.255.161.512.222.771.069.289.125.583.169.879a1.667,1.667,0,0,1,.124,3.065q-.082.034-.162.06c-.048.253-.105.5-.175.752a1.419,1.419,0,0,0,.07,1.06,1.284,1.284,0,0,1,.064.141,1.647,1.647,0,0,1,.016,1.246,1.7,1.7,0,0,1-.871.893,1.684,1.684,0,0,1-1.247.015c-.038-.016-.077-.034-.116-.054a6.25,6.25,0,0,1-1.247.794,1.7,1.7,0,0,0-.909,1.128,1.374,1.374,0,0,1-.837.938,1.429,1.429,0,0,1-1.953-.879.912.912,0,0,0-.7-.59H7.162a1.447,1.447,0,0,1-.3.176,1.248,1.248,0,0,1-1,.026,1.713,1.713,0,0,0-1.053-.1,1.213,1.213,0,0,1-.458.018l-.025,0a1.432,1.432,0,0,1-1.212-1.2A1.34,1.34,0,0,1,3.1,14.7a1.956,1.956,0,0,0-.324-1.31c-.086-.119-.167-.242-.245-.366a2.446,2.446,0,0,0-1.015-.95,1.614,1.614,0,0,1-.711-2.2c-.07-.371-.116-.619-.187-.99A1.663,1.663,0,0,1,.979,6.067l.007,0a.48.48,0,0,0,.276-.635,1.176,1.176,0,0,1,.586-1.664,1.158,1.158,0,0,1,.826-.056.59.59,0,0,0,.6-.13l0,0a6.084,6.084,0,0,1,.753-.609.564.564,0,0,0,.231-.513,2.01,2.01,0,0,1,.157-1A2.421,2.421,0,0,1,5.66.182,2.4,2.4,0,0,1,7.442.161a1.741,1.741,0,0,1,.738.5,1.689,1.689,0,0,1,.258.26.577.577,0,0,0,.481.222l.1,0A.583.583,0,0,0,9.47.881a1.683,1.683,0,0,1,.724-.563,1.705,1.705,0,0,1,2.361,1.591,1.386,1.386,0,0,0,.389.894l.009.008a1.418,1.418,0,0,0,.855.425A1.587,1.587,0,0,1,14.717,5.832Z" transform="translate(0 0)" fill="#fff"/>
        <path id="Trazado_192" data-name="Trazado 192" d="M6.9,11.244c-.463.064-.707-.683-.228-.822,3.243-.939,3.576-3.957,2.174-6.675C7.517,1.173,4.08-.247,1.884,2.255c-2.211,2.518-.158,5.7,2.836,5.966,2.155.194,2.579-2.359,1.362-3.73A1.964,1.964,0,0,0,3.8,3.855c-1.673,1.042.47,2.338,1.053,2.8.28.223.035.725-.316.566C3.39,6.7,1.961,5.5,2.47,4.057,2.925,2.771,4.6,2.566,5.7,3.074c2.6,1.2,2.842,6.043-.573,6.093S-1.168,5.942.474,2.634A5,5,0,0,1,8.454,1.493C11.223,4.257,11.891,10.555,6.9,11.244Z" transform="translate(2.687 3.216)" fill="#fd86a6"/>
      </g>
      <g id="Grupo_138" data-name="Grupo 138" transform="translate(0 -1.061)">
        <path id="Trazado_193" data-name="Trazado 193" d="M6.38,142.588,0,19.581,67.607,0,89.594,122.557Z" transform="translate(18.04 0)" fill="#209b27"/>
        <path id="Trazado_194" data-name="Trazado 194" d="M24.42,52.657l83.213-20.031L69.941,0,0,29.167Z" transform="translate(0 89.931)" fill="#f2f2f2"/>
        <path id="Trazado_195" data-name="Trazado 195" d="M1.989,32.01A22.6,22.6,0,0,1,4.649,9.054a23.97,23.97,0,0,1,40.1,3.976,22.5,22.5,0,0,1-1.538,22.433C33.843,48.86,8.992,46.851,1.989,32.01Z" transform="translate(34.877 41.301)" fill="#fff"/>
        <g id="Grupo_137" data-name="Grupo 137" transform="translate(85.647 0)">
          <path id="Trazado_196" data-name="Trazado 196" d="M21.986,122.557l54.933,8.73L47.822,16.066,0,0Z" transform="translate(0 0)" fill="#16691a"/>
          <path id="Trazado_197" data-name="Trazado 197" d="M42.336,115.221,0,49.578,13.238,0Z" transform="translate(34.583 16.066)" fill="#1a781f"/>
          <path id="Trazado_198" data-name="Trazado 198" d="M21.986,122.557,48.241,59.806,0,0Z" transform="translate(0 0)" fill="#1c8222"/>
        </g>
        <path id="Trazado_199" data-name="Trazado 199" d="M0,32.626l54.933,8.73L77.721,17.273,28.454,0Z" transform="translate(107.633 89.931)" fill="#ebebeb"/>
      </g>
      <g id="Grupo_139" data-name="Grupo 139" transform="translate(110.719 189.016)">
        <path id="Trazado_200" data-name="Trazado 200" d="M0,1.449s8.271,22.4,16.071,28.57l2.5-1.9A91.71,91.71,0,0,1,2.263,0Z" transform="translate(11.805 14.417)" fill="#6fad2c"/>
        <path id="Trazado_201" data-name="Trazado 201" d="M1.852,0A101.5,101.5,0,0,1,9.814,28.163c-.871.339-1.573.482-2.445.821A101.031,101.031,0,0,0,0,.942C.49.483,1.362.458,1.852,0Z" transform="translate(11.021 15.023)" fill="#518020"/>
        <path id="Trazado_202" data-name="Trazado 202" d="M6.376,15.747C4.127,14,1.3,12.6.341,10.011-.566,7.579.372,4.417,2.734,2.324S8.773-.6,11.371.463c3.458,1.418,4.258,5.405,3.965,9.02a16.2,16.2,0,0,0,.074,2.313,20.57,20.57,0,0,1-.141,2.657,8.456,8.456,0,0,0,1.014,4.271c.183.366,1.138,2.509.277,2.826a.506.506,0,0,1-.532-.213L14.09,19.2a7.357,7.357,0,0,1-.418,3.276.332.332,0,0,1-.173.221c-.133.049-.233-.064-.289-.164a10.117,10.117,0,0,0-2.95-3.745C8.886,17.863,7.677,16.757,6.376,15.747Z" transform="translate(0 0)" fill="#fff"/>
        <path id="Trazado_203" data-name="Trazado 203" d="M10.364,14.38a22.358,22.358,0,0,1,2.51,5.962c.043.138-.223.205-.265.069a25.643,25.643,0,0,0-2.042-5.179,12.672,12.672,0,0,0-3.958-4.049C3.967,9.353.676,7.594.085,4.314A5.4,5.4,0,0,1,1.129.063c.1-.136.315-.027.212.109A5.2,5.2,0,0,0,.826,5.677C1.829,7.7,3.862,9.026,5.78,10.3A15.819,15.819,0,0,1,10.364,14.38Z" transform="translate(0.89 3.022)" fill="#ebebeb"/>
        <path id="Trazado_204" data-name="Trazado 204" d="M1.463.138A8.283,8.283,0,0,0,.442,6.006a9.16,9.16,0,0,0,3.047,4.587c2.562,2.336,5.959,4.272,6.792,7.759.034.142-.232.21-.265.069-.908-3.8-4.9-5.717-7.507-8.393A8.2,8.2,0,0,1,.079,5.555,8.64,8.64,0,0,1,1.216.085C1.3-.058,1.544-.007,1.463.138Z" transform="translate(3.679 0.869)" fill="#ebebeb"/>
        <path id="Trazado_205" data-name="Trazado 205" d="M4.972,8.416c.177,1.774.193,3.583.465,5.335a18.146,18.146,0,0,0,1.72,5.362c.065.129-.183.255-.248.126a18.373,18.373,0,0,1-1.629-4.792,46.9,46.9,0,0,1-.5-5.145,14.6,14.6,0,0,0-1.1-5.076,9.436,9.436,0,0,0-3.634-4C-.082.148.08-.062.209.018A9.782,9.782,0,0,1,3.654,3.561,12.457,12.457,0,0,1,4.972,8.416Z" transform="translate(7.422 0.181)" fill="#ebebeb"/>
        <path id="Trazado_206" data-name="Trazado 206" d="M2.977,9.5a31.092,31.092,0,0,0,.3,5.376,20.986,20.986,0,0,0,1.7,5.44c.061.13-.186.257-.247.125A23.425,23.425,0,0,1,2.706,10.215C2.725,6.637,2.84,2.68.031.2-.08.1.133-.069.243.029,2.907,2.378,3,6.076,2.977,9.5Z" transform="translate(11.625 0.928)" fill="#ebebeb"/>
        <path id="Trazado_207" data-name="Trazado 207" d="M4.8,5c.5,1.379,1.083,3.117-.023,4.637a.144.144,0,0,1-.071.053.134.134,0,0,1-.175.042,9.73,9.73,0,0,1-3.34-3.4A7.734,7.734,0,0,1,.02,1.946C.1,1.106.973-.714,1.991.3A12.724,12.724,0,0,1,4.8,5ZM3,2.045A14.346,14.346,0,0,0,2.109.853,3.973,3.973,0,0,0,1.733.424C1.362.09.846.454.614.848A3.481,3.481,0,0,0,.376,3.283,8.926,8.926,0,0,0,1.165,5.7,9.406,9.406,0,0,0,4.6,9.463C5.7,7.87,4.883,5.9,4.314,4.52A14.189,14.189,0,0,0,3,2.045Z" transform="translate(5.561 1.926)" fill="#ebebeb"/>
      </g>
      <path id="Trazado_208" data-name="Trazado 208" d="M180.815,13.023,2.5.006A2.327,2.327,0,0,0,.007,2.148h0a2.326,2.326,0,0,0,2.131,2.5L180.348,19.087" transform="translate(185.429 270.073)" fill="#474726"/>
      <g id="Grupo_160" data-name="Grupo 160" transform="matrix(0.995, -0.105, 0.105, 0.995, 42.963, 51.688)">
        <g id="fire" transform="translate(0 0)">
          <path id="fire-2" data-name="fire" d="M3.034.117C3.242.034,3.6-.125,3.6.174c0,.126-.1.135-.2.167a1.783,1.783,0,0,0-.889.707,2.972,2.972,0,0,0-.47,1.8C2.046,4.338,4.1,4.608,4.1,6.1c0,.571-.357.74-.357.9,0,.1.033.1.135.1.371,0,.889-.619,1.047-.921a.906.906,0,0,0,.112-.516c0-.327-.033-.66-.033-.991,0-1.257,1.486-.921,1.486-.317,0,.279-.167.54-.167.81,0,.033,0,.057.033.057.158,0,.437-.357.516-.47a2.769,2.769,0,0,0,.4-1.461C7.27,1.784,5.9,1.012,5.9.686,5.9.639,6.032.329,6.46.6a4.619,4.619,0,0,1,2.47,4.178A5.1,5.1,0,0,1,7.439,8.618c-.181.191-.763.786-1.047.786-.382,0,.335-.865.335-1.452a.543.543,0,0,0-.571-.571c-.54,0-.675,1.182-.74,1.549-.27,1.572-.594,2.708-2.159,3.448-.484.233-1.7.549-1.7.1,0-.112.126-.191.214-.238a2.246,2.246,0,0,0,.912-1.777C2.685,8.321,0,6.362,0,4.129A4.349,4.349,0,0,1,3.038.119Z" transform="translate(10.256 13.367)" fill="#209b27"/>
          <path id="Trazado_73" data-name="Trazado 73" d="M0,12.6l29.445-2.563a15.206,15.206,0,0,0-6.351-7.648C18.283-.456,14.742.032,14.742.032a14.842,14.842,0,0,0-9.979,4.1C.172,8.475,0,12.6,0,12.6Z" transform="translate(0 0)" fill="#209b27"/>
        </g>
      </g>
      <path id="Trazado_214" data-name="Trazado 214" d="M92.009,43.292,47.576,48.427,0,24.731l35.839-4.54L9.164,4.515,45.392,0l2.184,20.191Z" transform="translate(183.07 27.328) rotate(171)" fill="#dedede"/>
    </g>
  </g>
</svg>
