<svg xmlns="http://www.w3.org/2000/svg" width="37.892" height="37.884" viewBox="0 0 37.892 37.884">
  <path id="instagram-brands" d="M18.875,41.054a9.713,9.713,0,1,0,9.713,9.713A9.7,9.7,0,0,0,18.875,41.054Zm0,16.027a6.315,6.315,0,1,1,6.315-6.315,6.326,6.326,0,0,1-6.315,6.315ZM31.251,40.657a2.265,2.265,0,1,1-2.265-2.265A2.26,2.26,0,0,1,31.251,40.657Zm6.433,2.3c-.144-3.035-.837-5.723-3.06-7.938s-4.9-2.908-7.938-3.06c-3.128-.178-12.5-.178-15.63,0C8.03,32.1,5.341,32.8,3.118,35.01S.21,39.913.058,42.947c-.178,3.128-.178,12.5,0,15.63C.2,61.612.9,64.3,3.118,66.515s4.9,2.908,7.938,3.06c3.128.178,12.5.178,15.63,0,3.035-.144,5.723-.837,7.938-3.06s2.908-4.9,3.06-7.938c.178-3.128.178-12.494,0-15.622ZM33.643,61.934a6.393,6.393,0,0,1-3.6,3.6c-2.494.989-8.411.761-11.167.761s-8.682.22-11.167-.761a6.393,6.393,0,0,1-3.6-3.6c-.989-2.494-.761-8.411-.761-11.167s-.22-8.682.761-11.167a6.393,6.393,0,0,1,3.6-3.6c2.494-.989,8.411-.761,11.167-.761s8.682-.22,11.167.761a6.393,6.393,0,0,1,3.6,3.6c.989,2.494.761,8.411.761,11.167S34.632,59.448,33.643,61.934Z" transform="translate(0.075 -31.825)" fill="#8e8e8e"/>
</svg>
