<svg xmlns="http://www.w3.org/2000/svg" width="220.42" height="220.852" viewBox="0 0 220.42 220.852">
  <g id="khao-wok" transform="translate(-1176 -315.967)">
    <circle id="Elipse_1" data-name="Elipse 1" cx="110.21" cy="110.21" r="110.21" transform="translate(1176 316.399)" fill="#209b27"/>
    <g id="Symbol_2_1" data-name="Symbol 2 – 1" transform="translate(267.801 -1633.033)">
      <circle id="Elipse_2" data-name="Elipse 2" cx="51.5" cy="51.5" r="51.5" transform="translate(948.199 2000.5) rotate(-30)" fill="#fff"/>
      <rect id="Rectángulo_3" data-name="Rectángulo 3" width="102" height="30" transform="translate(965.972 1963.589) rotate(-1)" fill="#209b27"/>
      <rect id="Rectángulo_2" data-name="Rectángulo 2" width="110" height="43" transform="translate(963.049 1979.991) rotate(4)" fill="#209b27"/>
      <path id="free-code-camp-brands" d="M17.6,79.131c-6.418,10.722-5.7,25.514.157,35.532,3.475,5.979,7.783,8.2,7.783,10.409a2.088,2.088,0,0,1-2,2.035C20.479,127.107,8,115.288,8,96.145c0-17.453,12.21-29.114,15.2-29.114.939,0,2.332.751,2.332,1.737C25.531,70.757,21.1,73.246,17.6,79.131ZM48.246,112.6c.7.282,1.922.814,1.922-.192,0-.423-.344-.454-.673-.563a6,6,0,0,1-2.99-2.379,10,10,0,0,1-1.581-6.042c0-5.024,6.918-5.932,6.918-10.954,0-1.922-1.2-2.489-1.2-3.021,0-.344.11-.344.454-.344,1.249,0,2.99,2.082,3.522,3.1a3.049,3.049,0,0,1,.376,1.737c0,1.1-.11,2.222-.11,3.334,0,4.228,5,3.1,5,1.065,0-.939-.563-1.816-.563-2.724,0-.11,0-.192.11-.192.532,0,1.471,1.2,1.737,1.581a9.315,9.315,0,0,1,1.331,4.915c0,5.071-4.618,7.67-4.618,8.766,0,.157.454,1.2,1.894.3a15.541,15.541,0,0,0,8.311-14.056,17.147,17.147,0,0,0-5.02-12.929c-.61-.642-2.567-2.645-3.522-2.645-1.284,0,1.127,2.911,1.127,4.884a1.826,1.826,0,0,1-1.922,1.922c-1.816,0-2.27-3.976-2.489-5.213-.908-5.29-2-9.11-7.263-11.6-1.628-.783-5.713-1.847-5.713-.344,0,.376.423.642.72.8a7.557,7.557,0,0,1,3.068,5.979c0,7.216-9.032,13.805-9.032,21.319-.032,6.308,4.4,11.364,10.222,13.492ZM80.379,67a2.487,2.487,0,0,0-2.254,1.973c0,1.362,1.894,3.068,2.755,3.976,12.773,13.32,12.3,33.544,2.755,45.55-1.1,1.393-5.526,5.526-5.526,6.809,0,.8,1.284,1.784,2.066,1.784,3.976,0,15.47-12.648,15.47-29.068C95.656,79.35,83.729,67,80.379,67Zm-6.621,50.574H32.886a2.5,2.5,0,1,0,0,5H73.758c1.471,0,1.863-1.174,1.863-2.567,0-1.334-.549-2.429-1.863-2.429Z" transform="translate(966.26 1911.292)" fill="#fff"/>
      <rect id="Rectángulo_4" data-name="Rectángulo 4" width="45" height="57" transform="matrix(0.994, 0.105, -0.105, 0.994, 1037.761, 1975.753)" fill="#209b27"/>
      <rect id="Rectángulo_5" data-name="Rectángulo 5" width="32" height="51" transform="matrix(0.999, 0.035, -0.035, 0.999, 968.689, 1974.848)" fill="#209b27"/>
      <line id="Línea_2" data-name="Línea 2" x2="97" y2="9" transform="translate(967.5 2025.899)" fill="none" stroke="#209b27" stroke-width="1"/>
      <rect id="Rectángulo_6" data-name="Rectángulo 6" width="60" height="6" transform="translate(974.787 2020.414) rotate(5)" fill="#209b27"/>
    </g>
    <text id="KHAO" transform="translate(1235 475)" fill="#fff" font-size="26" font-family="Papyrus-Regular, Papyrus"><tspan x="0" y="0">KHAO</tspan></text>
    <text id="WOK" transform="translate(1265 495)" fill="#fff" font-size="14" font-family="Papyrus-Regular, Papyrus"><tspan x="0" y="0">WOK</tspan></text>
  </g>
</svg>
