<svg xmlns="http://www.w3.org/2000/svg" width="247" height="249.399" viewBox="0 0 247 249.399">
  <g id="Símbolo_3_1" data-name="Símbolo 3 – 1" transform="translate(-251 -252.601)">
    <circle id="Elipse_1" data-name="Elipse 1" cx="123.5" cy="123.5" r="123.5" transform="translate(251 255)" fill="#209b27"/>
    <text id="khao" transform="translate(375 432)" fill="#fff" font-size="69" font-family="Herculanum"><tspan x="-92.667" y="0">khao</tspan></text>
    <circle id="Elipse_2" data-name="Elipse 2" cx="51.5" cy="51.5" r="51.5" transform="translate(304.199 304.101) rotate(-30)" fill="#fff"/>
    <rect id="Rectángulo_3" data-name="Rectángulo 3" width="102" height="34" transform="translate(321.902 268.191) rotate(-1)" fill="#209b27"/>
    <rect id="Rectángulo_2" data-name="Rectángulo 2" width="110" height="43" transform="translate(318.415 293.376)" fill="#209b27"/>
    <text id="Wok" transform="translate(375 456)" fill="#fff" font-size="28" font-family="Herculanum"><tspan x="-30.59" y="0">Wok</tspan></text>
    <path id="free-code-camp-brands" d="M17.986,79.625c-6.679,11.159-5.93,26.554.163,36.98,3.617,6.223,8.1,8.536,8.1,10.833a2.173,2.173,0,0,1-2.085,2.118c-3.177,0-16.16-12.3-16.16-32.223,0-18.164,12.707-30.3,15.818-30.3.977,0,2.427.782,2.427,1.808C26.245,70.91,21.635,73.5,17.986,79.625Zm31.9,34.829c.733.293,2,.847,2-.2,0-.44-.358-.472-.7-.586a6.239,6.239,0,0,1-3.112-2.476,10.412,10.412,0,0,1-1.645-6.288c0-5.229,7.2-6.174,7.2-11.4,0-2-1.254-2.59-1.254-3.144,0-.358.114-.358.472-.358,1.3,0,3.112,2.167,3.665,3.226a3.173,3.173,0,0,1,.391,1.808c0,1.14-.114,2.313-.114,3.47,0,4.4,5.2,3.226,5.2,1.108,0-.977-.586-1.89-.586-2.835,0-.114,0-.2.114-.2.554,0,1.531,1.254,1.808,1.645a9.694,9.694,0,0,1,1.385,5.115c0,5.278-4.806,7.982-4.806,9.123,0,.163.472,1.254,1.971.31a16.174,16.174,0,0,0,8.65-14.629,17.846,17.846,0,0,0-5.229-13.456c-.635-.668-2.672-2.753-3.665-2.753-1.336,0,1.173,3.03,1.173,5.083a1.9,1.9,0,0,1-2,2c-1.89,0-2.362-4.138-2.59-5.425-.945-5.506-2.085-9.481-7.559-12.071-1.694-.815-5.946-1.922-5.946-.358,0,.391.44.668.749.831a7.865,7.865,0,0,1,3.193,6.223c0,7.51-9.4,14.368-9.4,22.188-.033,6.565,4.578,11.827,10.638,14.042ZM83.328,67a2.588,2.588,0,0,0-2.346,2.053c0,1.417,1.971,3.193,2.867,4.138,13.293,13.863,12.8,34.911,2.867,47.406-1.14,1.45-5.751,5.751-5.751,7.086,0,.831,1.336,1.857,2.15,1.857,4.138,0,16.1-13.163,16.1-30.252C99.227,79.853,86.814,67,83.328,67Zm-6.891,52.635H33.9a2.6,2.6,0,0,0,0,5.2H76.437c1.531,0,1.939-1.222,1.939-2.672C78.375,120.775,77.805,119.635,76.437,119.635Z" transform="translate(319.689 217.444)" fill="#fff"/>
    <rect id="Rectángulo_4" data-name="Rectángulo 4" width="32" height="63" transform="translate(392 274)" fill="#209b27"/>
    <rect id="Rectángulo_5" data-name="Rectángulo 5" width="32" height="63" transform="translate(318 274)" fill="#209b27"/>
    <line id="Línea_1" data-name="Línea 1" x2="14" y2="5" transform="translate(440.5 326.5)" fill="none" stroke="#209b27" stroke-width="1"/>
    <line id="Línea_2" data-name="Línea 2" x2="46" transform="translate(347.5 336.5)" fill="none" stroke="#209b27" stroke-width="1"/>
  </g>
</svg>
