<svg xmlns="http://www.w3.org/2000/svg" width="195.349" height="51.681" viewBox="0 0 195.349 51.681">
  <defs>
    <style>
      .cls-1 {
        fill: #209b27;
      }
    </style>
  </defs>
  <g id="logo-khao-new" transform="translate(-90.217 -40.802)">
    <path id="Path_51" data-name="Path 51" class="cls-1" d="M-68.241-15.8l-6.417,6.072V0h-8.625V-51.2h8.625v30.912l17.871-16.56h10.35L-61.824-21.39-44.988,0H-55.476ZM-18.492-37.26q6.969,0,11.178,4.071T-3.1-21.114V0H-11.73V-20.01q0-4.83-2.277-7.279a8.419,8.419,0,0,0-6.486-2.45,9.957,9.957,0,0,0-7.521,2.864q-2.76,2.864-2.76,8.246V0H-39.4V-51.2h8.625v18.63A14.03,14.03,0,0,1-25.5-36.053,19.373,19.373,0,0,1-18.492-37.26Zm40.434,0q8.142,0,12.454,3.9T38.709-21.6V0H30.567V-4.485A10.035,10.035,0,0,1,26.048-.794,17.667,17.667,0,0,1,18.975.483,17.328,17.328,0,0,1,11.73-.932a11.194,11.194,0,0,1-4.8-3.933,9.981,9.981,0,0,1-1.691-5.693,9.756,9.756,0,0,1,3.692-7.969q3.692-3,11.626-3h9.522v-.552a7.552,7.552,0,0,0-2.311-5.934q-2.312-2.07-6.866-2.07a19.817,19.817,0,0,0-6.107.966,15,15,0,0,0-5.072,2.691L6.348-32.706a20.936,20.936,0,0,1,6.969-3.381A31.008,31.008,0,0,1,21.942-37.26ZM20.769-5.8A11.137,11.137,0,0,0,26.531-7.28a8.072,8.072,0,0,0,3.553-4.244V-15.8h-8.9q-7.452,0-7.452,4.9a4.4,4.4,0,0,0,1.863,3.726A8.541,8.541,0,0,0,20.769-5.8ZM66.654.483A20.905,20.905,0,0,1,56.58-1.932a17.609,17.609,0,0,1-7-6.728,19,19,0,0,1-2.518-9.764,18.814,18.814,0,0,1,2.518-9.729,17.681,17.681,0,0,1,7-6.693A20.906,20.906,0,0,1,66.654-37.26,21.051,21.051,0,0,1,76.8-34.845a17.681,17.681,0,0,1,7,6.693,18.814,18.814,0,0,1,2.519,9.729A19,19,0,0,1,83.8-8.66a17.609,17.609,0,0,1-7,6.728A21.051,21.051,0,0,1,66.654.483Zm0-7.383a10.538,10.538,0,0,0,7.866-3.174,11.428,11.428,0,0,0,3.105-8.349,11.428,11.428,0,0,0-3.105-8.349,10.538,10.538,0,0,0-7.866-3.174,10.425,10.425,0,0,0-7.832,3.174,11.5,11.5,0,0,0-3.07,8.349,11.5,11.5,0,0,0,3.07,8.349A10.425,10.425,0,0,0,66.654-6.9Z" transform="translate(173.5 92)"/>
    <path id="Path_50" data-name="Path 50" class="cls-1" d="M-4.025-12.1-8.6,0h-1.541l-3.818-9.913L-17.779,0H-19.32l-4.554-12.1h1.564l3.795,10.281L-14.628-12.1h1.4L-9.361-1.817-5.52-12.1ZM3.036.115A6.288,6.288,0,0,1-.115-.679a5.787,5.787,0,0,1-2.208-2.2,6.262,6.262,0,0,1-.8-3.174,6.262,6.262,0,0,1,.8-3.174A5.7,5.7,0,0,1-.115-11.408a6.361,6.361,0,0,1,3.151-.782,6.361,6.361,0,0,1,3.151.782,5.625,5.625,0,0,1,2.2,2.185,6.334,6.334,0,0,1,.793,3.174,6.334,6.334,0,0,1-.793,3.174,5.7,5.7,0,0,1-2.2,2.2A6.288,6.288,0,0,1,3.036.115Zm0-1.449a4.565,4.565,0,0,0,2.312-.587,4.089,4.089,0,0,0,1.6-1.667,5.159,5.159,0,0,0,.575-2.461A5.159,5.159,0,0,0,6.946-8.51a4.089,4.089,0,0,0-1.6-1.668,4.565,4.565,0,0,0-2.312-.587,4.565,4.565,0,0,0-2.312.587A4.165,4.165,0,0,0-.885-8.51a5.077,5.077,0,0,0-.586,2.461A5.077,5.077,0,0,0-.885-3.588,4.165,4.165,0,0,0,.725-1.921,4.565,4.565,0,0,0,3.036-1.334ZM17-6.072,14.145-3.45V0H12.512V-17.066h1.633V-5.5l7.222-6.6h2.024L18.216-7.153,23.874,0h-2Z" transform="translate(268.5 67) rotate(90)"/>
  </g>
</svg>
