<svg xmlns="http://www.w3.org/2000/svg" width="950.438" height="258.256" viewBox="0 0 950.438 258.256">
  <g id="logo" transform="translate(-25.624 -752)">
    <g id="Grupo_89" data-name="Grupo 89" transform="translate(25.624 752)">
      <g id="fire">
        <path id="fire-2" data-name="fire" d="M113.451,199.842c2.061.83,5.659,2.4,5.659-.565,0-1.245-1.013-1.337-1.981-1.658a17.665,17.665,0,0,1-8.8-7,29.441,29.441,0,0,1-4.655-17.788c0-14.791,20.367-17.464,20.367-32.25,0-5.659-3.533-7.328-3.533-8.894,0-1.013.324-1.013,1.337-1.013,3.677,0,8.8,6.13,10.369,9.127a8.976,8.976,0,0,1,1.107,5.114c0,3.238-.324,6.542-.324,9.816,0,12.448,14.721,9.127,14.721,3.135,0-2.765-1.658-5.346-1.658-8.02,0-.324,0-.565.324-.565,1.566,0,4.331,3.533,5.114,4.655a27.424,27.424,0,0,1,3.919,14.47c0,14.93-13.6,22.581-13.6,25.808,0,.462,1.337,3.533,5.576.883a45.755,45.755,0,0,0,24.469-41.383,50.483,50.483,0,0,0-14.779-38.064c-1.8-1.89-7.558-7.787-10.369-7.787-3.78,0,3.318,8.57,3.318,14.379a5.376,5.376,0,0,1-5.659,5.659c-5.347,0-6.683-11.706-7.328-15.348-2.673-15.574-5.888-26.821-21.383-34.152-4.793-2.305-16.82-5.438-16.82-1.013,0,1.107,1.245,1.89,2.12,2.355a22.249,22.249,0,0,1,9.033,17.6c0,21.245-26.591,40.643-26.591,62.766-.094,18.571,12.954,33.457,30.095,39.722Z" transform="translate(18.18 -75.152)" fill="#209b27"/>
        <path id="Trazado_73" data-name="Trazado 73" d="M-1196.239-670.08l291.655,25.385s-15.266,47.613-62.911,75.755-82.72,23.306-82.72,23.306-53.374,2.318-98.848-40.653S-1196.239-670.08-1196.239-670.08Z" transform="translate(1196.239 803.573)" fill="#209b27"/>
      </g>
    </g>
    <g id="Grupo_79" data-name="Grupo 79" transform="translate(354.86 787.704)">
      <path id="Trazado_75" data-name="Trazado 75" d="M-194.947-35h27.358l-74.358-90.025,69.915-73.657h-26.657l-88.856,91.428v-91.428h-23.383V-35h23.383V-77.323l29.93-30.4ZM-96.5-160.1c-18.94,0-34.373,6.781-43.726,18.706V-208.5h-22.448V-35h22.448V-98.836c0-26.89,15.433-41.154,39.283-41.154,21.279,0,33.438,11.925,33.438,36.244V-35h22.448v-71.318C-45.061-142.8-66.34-160.1-96.5-160.1Zm121.592,0c-19.876,0-38.348,5.612-51.209,15.9l9.353,16.836c9.587-8.184,24.552-13.328,39.283-13.328,22.214,0,33.2,10.99,33.2,29.93v4.443H20.177c-36.945,0-49.806,16.368-49.806,36.244C-29.629-48.562-11.857-33.6,16.2-33.6c19.408,0,33.2-6.547,40.686-17.771V-35H78.167v-74.826C78.167-143.731,58.993-160.1,25.088-160.1ZM19.943-50.9C2.874-50.9-7.415-58.617-7.415-71.01c0-10.522,6.313-19.174,28.527-19.174H55.719v17.3C50.108-58.617,36.779-50.9,19.943-50.9ZM156.968-33.6c37.179,0,64.3-26.423,64.3-63.368s-27.124-63.134-64.3-63.134S92.431-133.91,92.431-96.965,119.789-33.6,156.968-33.6Zm0-19.642c-23.851,0-41.856-17.3-41.856-43.726s18-43.492,41.856-43.492,41.622,17.07,41.622,43.492S180.819-53.239,156.968-53.239Z" transform="translate(310.926 211.37)" fill="#209b27"/>
      <path id="Trazado_74" data-name="Trazado 74" d="M75.7,20.491l-15.842,42.4-15.937-42.4H38.135L22.1,62.895,6.451,20.491H0l18.783,49.9h6.356L40.886,29.5,56.634,70.389h6.356l18.878-49.9Zm29.977,50.373c14.609,0,25.329-10.625,25.329-25.423s-10.72-25.329-25.329-25.329S80.255,30.641,80.255,45.44,91.069,70.863,105.678,70.863Zm0-5.976c-10.625,0-18.593-7.779-18.593-19.447s7.969-19.447,18.593-19.447,18.5,7.779,18.5,19.447S116.3,64.887,105.678,64.887Zm72.381,5.5h8.253l-23.336-29.5,21.344-20.4h-8.348L146.185,47.716V0h-6.735V70.389h6.735V56.159l11.763-10.814Z" transform="translate(621.202 0) rotate(90)" fill="#209b27"/>
    </g>
  </g>
</svg>
