<svg xmlns="http://www.w3.org/2000/svg" width="113" height="113" viewBox="0 0 113 113">
  <defs>
    <style>
      .cls-1 {
        fill: rgba(32,155,39,0.69);
      }

      .cls-2 {
        fill: #fff;
      }
    </style>
  </defs>
  <g id="ordena-ya" transform="translate(-239 -1222)">
    <path id="Path_42" data-name="Path 42" class="cls-1" d="M56.5,0A56.5,56.5,0,1,1,0,56.5,56.5,56.5,0,0,1,56.5,0Z" transform="translate(239 1222)"/>
    <path id="Path_52" data-name="Path 52" class="cls-2" d="M-40.788.144A5.807,5.807,0,0,1-43.533-.5a4.75,4.75,0,0,1-1.9-1.773,4.885,4.885,0,0,1-.684-2.574,4.885,4.885,0,0,1,.684-2.574,4.75,4.75,0,0,1,1.9-1.773,5.807,5.807,0,0,1,2.745-.639,5.753,5.753,0,0,1,2.736.639,4.765,4.765,0,0,1,1.89,1.773,4.885,4.885,0,0,1,.684,2.574,4.885,4.885,0,0,1-.684,2.574A4.765,4.765,0,0,1-38.052-.5,5.753,5.753,0,0,1-40.788.144Zm0-2.3a2.339,2.339,0,0,0,1.773-.729,2.718,2.718,0,0,0,.693-1.953A2.717,2.717,0,0,0-39.015-6.8a2.339,2.339,0,0,0-1.773-.729A2.368,2.368,0,0,0-42.57-6.8a2.7,2.7,0,0,0-.7,1.953,2.7,2.7,0,0,0,.7,1.953A2.368,2.368,0,0,0-40.788-2.16Zm9.864-6.246a3.123,3.123,0,0,1,1.359-1.062,5.044,5.044,0,0,1,1.971-.36v2.592q-.468-.036-.63-.036a2.574,2.574,0,0,0-1.89.675A2.728,2.728,0,0,0-30.8-4.572V0h-2.808V-9.684h2.682Zm14.778-4.95V0h-2.682V-1.116A3.7,3.7,0,0,1-21.852.144a5.029,5.029,0,0,1-2.475-.612,4.382,4.382,0,0,1-1.737-1.746,5.322,5.322,0,0,1-.63-2.628,5.322,5.322,0,0,1,.63-2.628,4.382,4.382,0,0,1,1.737-1.746,5.029,5.029,0,0,1,2.475-.612,3.684,3.684,0,0,1,2.9,1.17v-4.7Zm-5.22,11.2A2.346,2.346,0,0,0-19.6-2.889a2.7,2.7,0,0,0,.7-1.953A2.7,2.7,0,0,0-19.6-6.8a2.346,2.346,0,0,0-1.764-.729,2.368,2.368,0,0,0-1.782.729,2.7,2.7,0,0,0-.7,1.953,2.7,2.7,0,0,0,.7,1.953A2.368,2.368,0,0,0-21.366-2.16Zm17.3-2.646q0,.054-.054.756h-7.326a2.282,2.282,0,0,0,.936,1.422,3.1,3.1,0,0,0,1.836.522,3.718,3.718,0,0,0,1.341-.225,3.248,3.248,0,0,0,1.089-.711l1.494,1.62a5.021,5.021,0,0,1-4,1.566,6.321,6.321,0,0,1-2.9-.639A4.684,4.684,0,0,1-13.59-2.268a4.885,4.885,0,0,1-.684-2.574A4.949,4.949,0,0,1-13.6-7.407a4.729,4.729,0,0,1,1.854-1.782,5.444,5.444,0,0,1,2.637-.639,5.4,5.4,0,0,1,2.574.612A4.467,4.467,0,0,1-4.725-7.461,5.233,5.233,0,0,1-4.068-4.806ZM-9.09-7.7a2.418,2.418,0,0,0-1.6.54,2.3,2.3,0,0,0-.792,1.476h4.77a2.322,2.322,0,0,0-.792-1.467A2.367,2.367,0,0,0-9.09-7.7ZM3.69-9.828A3.985,3.985,0,0,1,6.6-8.748,4.283,4.283,0,0,1,7.7-5.544V0H4.9V-5.112a2.524,2.524,0,0,0-.5-1.719A1.848,1.848,0,0,0,2.934-7.4a2.235,2.235,0,0,0-1.692.657,2.72,2.72,0,0,0-.63,1.953V0H-2.2V-9.684H.486V-8.55A3.724,3.724,0,0,1,1.872-9.5,4.829,4.829,0,0,1,3.69-9.828Zm10.458,0A5.04,5.04,0,0,1,17.6-8.757,4.1,4.1,0,0,1,18.81-5.526V0H16.182V-1.206A3.129,3.129,0,0,1,13.23.144a4.582,4.582,0,0,1-1.935-.378,2.885,2.885,0,0,1-1.251-1.044A2.717,2.717,0,0,1,9.612-2.79a2.523,2.523,0,0,1,1.017-2.124,5.183,5.183,0,0,1,3.141-.774H16A1.79,1.79,0,0,0,15.444-7.1,2.458,2.458,0,0,0,13.77-7.6a4.888,4.888,0,0,0-1.521.243A4.024,4.024,0,0,0,10.98-6.7L9.972-8.658a6.082,6.082,0,0,1,1.9-.864A8.507,8.507,0,0,1,14.148-9.828Zm-.216,8.082a2.445,2.445,0,0,0,1.278-.333A1.822,1.822,0,0,0,16-3.06v-.99H14.076q-1.728,0-1.728,1.134a1.01,1.01,0,0,0,.423.855A1.905,1.905,0,0,0,13.932-1.746ZM36.054-9.684,31.68.594a5.058,5.058,0,0,1-1.647,2.358,4.034,4.034,0,0,1-2.367.684A4.916,4.916,0,0,1,26.172,3.4a3.3,3.3,0,0,1-1.206-.648l1.026-2a2.411,2.411,0,0,0,.747.45,2.328,2.328,0,0,0,.837.162,1.485,1.485,0,0,0,.936-.279A2.368,2.368,0,0,0,29.16.162L29.2.072,25-9.684h2.9l2.718,6.57,2.736-6.57Zm4.734-.144a5.04,5.04,0,0,1,3.456,1.071A4.1,4.1,0,0,1,45.45-5.526V0H42.822V-1.206A3.129,3.129,0,0,1,39.87.144a4.582,4.582,0,0,1-1.935-.378,2.885,2.885,0,0,1-1.251-1.044,2.717,2.717,0,0,1-.432-1.512,2.523,2.523,0,0,1,1.017-2.124,5.183,5.183,0,0,1,3.141-.774h2.232A1.79,1.79,0,0,0,42.084-7.1,2.458,2.458,0,0,0,40.41-7.6a4.888,4.888,0,0,0-1.521.243A4.024,4.024,0,0,0,37.62-6.7L36.612-8.658a6.082,6.082,0,0,1,1.9-.864A8.507,8.507,0,0,1,40.788-9.828Zm-.216,8.082a2.445,2.445,0,0,0,1.278-.333,1.822,1.822,0,0,0,.792-.981v-.99H40.716q-1.728,0-1.728,1.134a1.01,1.01,0,0,0,.423.855A1.905,1.905,0,0,0,40.572-1.746ZM-46.692,1H24.1V2H-46.692Zm79.2,0H46.692V2H32.507Z" transform="translate(296 1285)"/>
  </g>
</svg>
