<svg id="rappi-logo" xmlns="http://www.w3.org/2000/svg" width="89.487" height="37.884" viewBox="0 0 89.487 37.884">
  <g id="XMLID_23_" transform="translate(0 0)">
    <path id="XMLID_31_" d="M236.582,377.269c-1.138.556-1.959,1.615-3.256,1.959-2.012.529-2.78.318-3.865-1.43-.4-.609-.688-.5-1.138-.132a12.686,12.686,0,0,1-1.721,1.218c-3.15,1.615-6.327.079-6.592-3.441a17.591,17.591,0,0,1,5.506-14.692,7.6,7.6,0,0,1,4.421-1.906c1.694-.212,2.806.5,3.865,2.541a3.269,3.269,0,0,1,3.944-1.562c1.562.371,2.065,1.377,1.43,2.859a66.448,66.448,0,0,0-3.336,8.6c-.212.821-.662,2.012.079,2.409.715.4,1.35-.715,1.932-1.3a8.347,8.347,0,0,0,1.747-3.23c.874-2.541,1.827-5.056,2.912-7.492.979-2.2,3.071-2.78,4.924-1.271.582.476.847.344,1.3-.053a7.47,7.47,0,0,1,1.43-.953c3.283-1.721,6.221-.079,6.406,3.627.238,4.077-1.244,7.677-3.309,11.065-.185.291-.4.582-.609.9,1.562-.212,3.362-2.065,4.13-4.289,1.006-2.965,2.118-5.877,3.362-8.736,1.138-2.621,2.859-3.124,5.215-1.429.476.344.662.185.979-.079a7.391,7.391,0,0,1,1.88-1.218c3.124-1.43,5.8.159,6.115,3.6.344,4.05-1.138,7.6-3.1,10.986-.185.318-.371.609-.529.9-.079.106-.371.159-.185.344.132.132.318.026.424-.132a7.909,7.909,0,0,0,3.865-4.818,45.883,45.883,0,0,1,3.6-8.762,2.955,2.955,0,0,1,3.521-1.641c1.88.344,2.409,1.324,1.668,3.071a59.857,59.857,0,0,0-3.256,8.5c-.212.794-.609,1.985,0,2.33.821.424,1.482-.688,2.065-1.3a23.231,23.231,0,0,0,1.88-2.383c.45-.635.979-.9,1.668-.477.715.45.424,1.032.053,1.588a27.019,27.019,0,0,1-5.824,6.8,7.723,7.723,0,0,1-.741.556c-3.018,2.038-5.268,1.032-5.744-2.727a29.282,29.282,0,0,1-4.924,2.78,14.707,14.707,0,0,1-6.221.9c-.979-.053-1.562-.741-2.383-1.509-.688,2.435-1.35,4.738-1.985,7.015-.079.291-.132.609-.212.9-.424,1.88-.847,2.3-2.171,2.171a3.158,3.158,0,0,1-2.991-2.833,13.714,13.714,0,0,1,.768-4c.371-1.482.821-2.938,1.271-4.58-4.05,2.144-7.889,4.209-12.468,1.694a65.514,65.514,0,0,0-1.906,6.512c-.079.291-.159.609-.212.9-.5,2.171-.874,2.515-2.462,2.25a2.94,2.94,0,0,1-2.7-3.521c.424-2.065,1.032-4.077,1.562-6.142.079-.291.106-.609.159-.9.106-.079.159-.159.026-.238A1.412,1.412,0,0,0,236.582,377.269Zm14.163-13.263c-.106-.582.159-1.165-.318-1.377-.5-.238-.794.265-1.059.582a21.506,21.506,0,0,0-4.977,11.41c-.053.424-.106.98.371,1.165.4.159.715-.238.979-.529A23.016,23.016,0,0,0,250.745,364.006Zm17.736.106c-.106-.635.185-1.271-.318-1.509s-.874.318-1.165.662a23.072,23.072,0,0,0-4.9,11.33c-.079.424-.079,1.006.318,1.218.45.238.794-.291,1.059-.582A22.712,22.712,0,0,0,268.481,364.112Zm-37.061.291c-.185-.662.318-1.588-.424-1.827-.662-.212-1.085.635-1.43,1.165a21.568,21.568,0,0,0-3.759,10.536c-.026.477-.212,1.191.4,1.377.5.159.847-.4,1.112-.768A21.486,21.486,0,0,0,231.42,364.4Z" transform="translate(-197.686 -350.077)" fill="#8e8e8e"/>
    <path id="XMLID_30_" d="M145.7,351.284c-.424,1.694-.874,3.362-1.3,5.056a1.8,1.8,0,0,1-2.25,1.615,3.436,3.436,0,0,1-3.256-4.341,87.623,87.623,0,0,1,6.062-17.975,2.586,2.586,0,0,1,2.488-1.43c3.759-.344,4.288.371,2.859,3.786-.847,2.065-1.615,4.156-2.462,6.327,3.733-.927,7.015-5.347,6.856-9a3.656,3.656,0,0,0-3.865-3.521c-3.971-.106-6.724,1.985-8.842,5.109a8.846,8.846,0,0,0-1.562,4.024c-.185,1.615-1.377,2.2-2.806,1.377a3.77,3.77,0,0,1-1.588-4.394A9.411,9.411,0,0,1,139,333.31c5.162-4.527,11.065-5.665,17.472-3.283,5.453,2.038,6.565,7.677,2.515,12.1a15.572,15.572,0,0,1-6.671,4.156,1.278,1.278,0,0,0-1.059,1.615c.344,3.1.953,6.089,2.912,8.656a6.688,6.688,0,0,0,8.656,2.224,14.084,14.084,0,0,1,1.324-.556.933.933,0,0,1,1.138.45,1,1,0,0,1-.159,1.218c-2.435,3.044-8.127,4.871-11.674,3.68-3.6-1.218-5.347-4.1-6.486-7.492C146.466,354.514,146.254,352.9,145.7,351.284Z" transform="translate(-135.869 -328.09)" fill="#8e8e8e"/>
    <path id="XMLID_29_" d="M451.981,330.058a4.1,4.1,0,0,1-4.13,3.944,3.944,3.944,0,0,1-3.759-4.13,4.016,4.016,0,0,1,4.13-3.786A3.976,3.976,0,0,1,451.981,330.058Z" transform="translate(-362.497 -326.083)" fill="#8e8e8e"/>
    <path id="XMLID_25_" d="M410.955,419.712c-.106.159-.318.238-.424.132-.185-.185.106-.238.185-.344C410.77,419.553,410.876,419.632,410.955,419.712Z" transform="translate(-337.778 -405.767)" fill="#8e8e8e"/>
  </g>
</svg>
