<svg xmlns="http://www.w3.org/2000/svg" width="275.67" height="258.078" viewBox="0 0 275.67 258.078">
  <defs>
    <style>
      .cls-1 {
        fill: #2a2a2a;
      }

      .cls-2 {
        fill: #707070;
      }
    </style>
  </defs>
  <g id="time" transform="translate(-51.272 -2213.084)">
    <path id="Path_65" data-name="Path 65" class="cls-1" d="M-65.641-28.62a11.827,11.827,0,0,1,8.586,3.127q3.233,3.127,3.233,9.275V0h-6.625V-15.37A7.946,7.946,0,0,0-62.2-20.962a6.467,6.467,0,0,0-4.982-1.882,7.648,7.648,0,0,0-5.777,2.2,8.767,8.767,0,0,0-2.12,6.334V0H-81.7V-39.326h6.625v14.31a10.776,10.776,0,0,1,4.054-2.676A14.881,14.881,0,0,1-65.641-28.62ZM-36.437.371a16.058,16.058,0,0,1-7.738-1.855,13.526,13.526,0,0,1-5.38-5.168,14.593,14.593,0,0,1-1.935-7.5,14.451,14.451,0,0,1,1.935-7.473,13.581,13.581,0,0,1,5.38-5.141,16.058,16.058,0,0,1,7.738-1.855,16.169,16.169,0,0,1,7.791,1.855,13.581,13.581,0,0,1,5.38,5.141,14.451,14.451,0,0,1,1.934,7.473,14.593,14.593,0,0,1-1.934,7.5,13.526,13.526,0,0,1-5.38,5.168A16.169,16.169,0,0,1-36.437.371Zm0-5.671A8.094,8.094,0,0,0-30.4-7.738a8.778,8.778,0,0,0,2.385-6.413A8.778,8.778,0,0,0-30.4-20.564,8.094,8.094,0,0,0-36.437-23a8.008,8.008,0,0,0-6.016,2.438,8.834,8.834,0,0,0-2.358,6.413,8.834,8.834,0,0,0,2.358,6.413A8.008,8.008,0,0,0-36.437-5.3Zm23.744-18.868q2.862-4.452,10.07-4.452v6.307a8.411,8.411,0,0,0-1.537-.159A8,8,0,0,0-10.2-20.219q-2.173,2.253-2.173,6.492V0H-19V-28.3h6.307ZM9.62-28.62q6.254,0,9.566,2.994T22.5-16.589V0H16.245V-3.445A7.708,7.708,0,0,1,12.773-.61,13.57,13.57,0,0,1,7.341.371,13.31,13.31,0,0,1,1.776-.715,8.6,8.6,0,0,1-1.908-3.737a7.666,7.666,0,0,1-1.3-4.373A7.494,7.494,0,0,1-.371-14.231q2.836-2.305,8.931-2.306h7.314v-.424A5.8,5.8,0,0,0,14.1-21.518a7.682,7.682,0,0,0-5.273-1.59,15.222,15.222,0,0,0-4.691.742A11.523,11.523,0,0,0,.239-20.3l-2.6-4.823a16.081,16.081,0,0,1,5.353-2.6A23.818,23.818,0,0,1,9.62-28.62Zm-.9,24.168a8.554,8.554,0,0,0,4.425-1.14,6.2,6.2,0,0,0,2.729-3.26v-3.286H9.037q-5.724,0-5.724,3.763A3.378,3.378,0,0,0,4.744-5.512,6.56,6.56,0,0,0,8.719-4.452ZM33.258-24.168q2.862-4.452,10.07-4.452v6.307a8.411,8.411,0,0,0-1.537-.159,8,8,0,0,0-6.042,2.253q-2.173,2.253-2.173,6.492V0H26.951V-28.3h6.307ZM44.918-28.3h6.625V0H44.918Zm3.339-4.664a4.255,4.255,0,0,1-3.021-1.139,3.723,3.723,0,0,1-1.219-2.835,3.723,3.723,0,0,1,1.219-2.835,4.255,4.255,0,0,1,3.021-1.139,4.375,4.375,0,0,1,3.021,1.086A3.5,3.5,0,0,1,52.5-37.1,4,4,0,0,1,51.3-34.159,4.127,4.127,0,0,1,48.257-32.966ZM68.927.371a16.058,16.058,0,0,1-7.738-1.855,13.526,13.526,0,0,1-5.38-5.168,14.593,14.593,0,0,1-1.935-7.5,14.451,14.451,0,0,1,1.935-7.473,13.581,13.581,0,0,1,5.38-5.141,16.058,16.058,0,0,1,7.738-1.855,16.169,16.169,0,0,1,7.791,1.855,13.581,13.581,0,0,1,5.38,5.141,14.451,14.451,0,0,1,1.935,7.473,14.593,14.593,0,0,1-1.935,7.5,13.526,13.526,0,0,1-5.38,5.168A16.169,16.169,0,0,1,68.927.371Zm0-5.671a8.094,8.094,0,0,0,6.042-2.438,8.778,8.778,0,0,0,2.385-6.413,8.778,8.778,0,0,0-2.385-6.413A8.094,8.094,0,0,0,68.927-23a8.008,8.008,0,0,0-6.016,2.438,8.834,8.834,0,0,0-2.358,6.413,8.834,8.834,0,0,0,2.358,6.413A8.008,8.008,0,0,0,68.927-5.3Z" transform="translate(184 2254)"/>
    <path id="Path_66" data-name="Path 66" class="cls-2" d="M17.935,8.3h2.294V28.016H32.381V30H17.935Zm32.24,5.394V30H48.067V27.024a6.037,6.037,0,0,1-2.387,2.309,7.182,7.182,0,0,1-3.472.822,6.943,6.943,0,0,1-5.038-1.783,6.937,6.937,0,0,1-1.844-5.223V13.694h2.2v9.238A5.452,5.452,0,0,0,38.8,26.838a4.774,4.774,0,0,0,3.627,1.333,5.336,5.336,0,0,0,4.061-1.566,6.068,6.068,0,0,0,1.488-4.355V13.694Zm14.477-.124a6.663,6.663,0,0,1,4.882,1.782,6.962,6.962,0,0,1,1.813,5.193V30h-2.2V20.762a5.4,5.4,0,0,0-1.271-3.875,4.774,4.774,0,0,0-3.627-1.333,5.571,5.571,0,0,0-4.169,1.566,5.913,5.913,0,0,0-1.535,4.325V30h-2.2V13.694h2.108V16.7a6.123,6.123,0,0,1,2.5-2.31A7.988,7.988,0,0,1,64.652,13.57Zm26.939,8.959H77.951A5.828,5.828,0,0,0,79.9,26.636,6.483,6.483,0,0,0,84.368,28.2a7.034,7.034,0,0,0,2.79-.542,6.1,6.1,0,0,0,2.2-1.6l1.24,1.426a6.983,6.983,0,0,1-2.713,1.984,9.174,9.174,0,0,1-3.58.682,9.053,9.053,0,0,1-4.449-1.069,7.711,7.711,0,0,1-3.022-2.961,8.44,8.44,0,0,1-1.085-4.278,8.739,8.739,0,0,1,1.038-4.278,7.52,7.52,0,0,1,2.852-2.945,7.963,7.963,0,0,1,4.076-1.054,7.879,7.879,0,0,1,4.061,1.054A7.472,7.472,0,0,1,90.6,17.553a8.821,8.821,0,0,1,1.023,4.294Zm-7.874-7.068a5.545,5.545,0,0,0-3.952,1.5,5.905,5.905,0,0,0-1.813,3.921H89.514A5.905,5.905,0,0,0,87.7,16.965,5.585,5.585,0,0,0,83.717,15.461Zm16.771,14.694a12.519,12.519,0,0,1-3.8-.574,8.168,8.168,0,0,1-2.837-1.441l.992-1.736a8.353,8.353,0,0,0,2.573,1.318,10.221,10.221,0,0,0,3.224.511,6.157,6.157,0,0,0,3.3-.7,2.22,2.22,0,0,0,1.07-1.969,1.77,1.77,0,0,0-.589-1.41,3.912,3.912,0,0,0-1.488-.775,21.226,21.226,0,0,0-2.387-.512,27.366,27.366,0,0,1-3.193-.759A4.692,4.692,0,0,1,95.3,20.793a3.665,3.665,0,0,1-.853-2.573,4.032,4.032,0,0,1,1.705-3.348,7.656,7.656,0,0,1,4.743-1.3,12.312,12.312,0,0,1,3.162.419,8.7,8.7,0,0,1,2.6,1.1l-.961,1.767a8.23,8.23,0,0,0-4.805-1.395,5.572,5.572,0,0,0-3.178.744,2.279,2.279,0,0,0-1.069,1.953,1.928,1.928,0,0,0,.6,1.488,3.718,3.718,0,0,0,1.5.821,24.261,24.261,0,0,0,2.48.542,28.529,28.529,0,0,1,3.131.744,4.6,4.6,0,0,1,2.015,1.271,3.5,3.5,0,0,1,.837,2.48,3.944,3.944,0,0,1-1.783,3.395A8.474,8.474,0,0,1,100.488,30.155ZM123.97,15.69a6.012,6.012,0,0,1,4.266,1.391,5.373,5.373,0,0,1,1.485,4.118V30h-1.836V27.786a4.4,4.4,0,0,1-1.9,1.728,6.662,6.662,0,0,1-2.984.621A5.842,5.842,0,0,1,119.218,29a3.9,3.9,0,0,1-.094-5.913,6.408,6.408,0,0,1,4.172-1.107H127.8v-.864a3.639,3.639,0,0,0-1.026-2.795,4.237,4.237,0,0,0-3-.958,7.619,7.619,0,0,0-2.592.445,6.532,6.532,0,0,0-2.133,1.229l-.864-1.431a7.662,7.662,0,0,1,2.592-1.417A10.091,10.091,0,0,1,123.97,15.69ZM123.3,28.623a5.052,5.052,0,0,0,2.781-.742,4.434,4.434,0,0,0,1.728-2.147V23.412h-4.455q-3.645,0-3.645,2.538a2.322,2.322,0,0,0,.945,1.957A4.3,4.3,0,0,0,123.3,28.623Zm22.518,1.512a10.9,10.9,0,0,1-3.307-.5,7.115,7.115,0,0,1-2.471-1.256l.864-1.512a7.275,7.275,0,0,0,2.241,1.147,8.9,8.9,0,0,0,2.808.446,5.362,5.362,0,0,0,2.875-.608,1.933,1.933,0,0,0,.932-1.715,1.542,1.542,0,0,0-.513-1.229,3.407,3.407,0,0,0-1.3-.675,18.487,18.487,0,0,0-2.079-.445,23.835,23.835,0,0,1-2.781-.662,4.086,4.086,0,0,1-1.8-1.148,3.192,3.192,0,0,1-.743-2.241,3.512,3.512,0,0,1,1.485-2.916,6.668,6.668,0,0,1,4.131-1.134,10.723,10.723,0,0,1,2.754.365,7.577,7.577,0,0,1,2.268.958l-.837,1.539a7.168,7.168,0,0,0-4.185-1.215,4.853,4.853,0,0,0-2.767.648,1.985,1.985,0,0,0-.932,1.7,1.679,1.679,0,0,0,.526,1.3,3.238,3.238,0,0,0,1.31.716,21.131,21.131,0,0,0,2.16.472,24.848,24.848,0,0,1,2.727.648,4.006,4.006,0,0,1,1.755,1.107,3.046,3.046,0,0,1,.729,2.16,3.435,3.435,0,0,1-1.553,2.957A7.381,7.381,0,0,1,145.813,30.135ZM160.177,15.69a6.012,6.012,0,0,1,4.266,1.391,5.373,5.373,0,0,1,1.485,4.118V30h-1.836V27.786a4.4,4.4,0,0,1-1.9,1.728,6.662,6.662,0,0,1-2.983.621A5.842,5.842,0,0,1,155.425,29a3.9,3.9,0,0,1-.095-5.913,6.408,6.408,0,0,1,4.172-1.107h4.509v-.864a3.639,3.639,0,0,0-1.026-2.795,4.237,4.237,0,0,0-3-.958,7.619,7.619,0,0,0-2.592.445,6.532,6.532,0,0,0-2.133,1.229l-.864-1.431a7.661,7.661,0,0,1,2.592-1.417A10.091,10.091,0,0,1,160.177,15.69ZM159.5,28.623a5.052,5.052,0,0,0,2.781-.742,4.434,4.434,0,0,0,1.728-2.147V23.412h-4.455q-3.645,0-3.645,2.538a2.322,2.322,0,0,0,.945,1.957A4.3,4.3,0,0,0,159.5,28.623Zm2.673-18.387h2.565l-4.374,3.348h-1.89Zm16.281,5.454a7.294,7.294,0,0,1,3.618.9,6.468,6.468,0,0,1,2.538,2.552,7.577,7.577,0,0,1,.918,3.753,7.577,7.577,0,0,1-.918,3.753,6.561,6.561,0,0,1-2.538,2.565,7.209,7.209,0,0,1-3.618.918,6.692,6.692,0,0,1-3.2-.756,5.847,5.847,0,0,1-2.281-2.187V30h-1.836V9.966h1.917V18.5a5.91,5.91,0,0,1,2.282-2.093A6.715,6.715,0,0,1,178.456,15.69Zm-.135,12.744a5.38,5.38,0,0,0,2.7-.688,4.863,4.863,0,0,0,1.9-1.958,6.405,6.405,0,0,0,0-5.778,4.863,4.863,0,0,0-1.9-1.958,5.665,5.665,0,0,0-5.414,0,4.89,4.89,0,0,0-1.89,1.958,6.406,6.406,0,0,0,0,5.778,4.89,4.89,0,0,0,1.89,1.958A5.359,5.359,0,0,0,178.321,28.434ZM194.333,15.69A6.012,6.012,0,0,1,198.6,17.08a5.373,5.373,0,0,1,1.485,4.118V30h-1.836V27.786a4.4,4.4,0,0,1-1.9,1.728,6.662,6.662,0,0,1-2.983.621A5.842,5.842,0,0,1,189.581,29a3.9,3.9,0,0,1-.095-5.913,6.408,6.408,0,0,1,4.172-1.107h4.509v-.864a3.639,3.639,0,0,0-1.026-2.795,4.237,4.237,0,0,0-3-.958,7.619,7.619,0,0,0-2.592.445,6.532,6.532,0,0,0-2.133,1.229l-.864-1.431a7.661,7.661,0,0,1,2.592-1.417A10.091,10.091,0,0,1,194.333,15.69Zm-.675,12.933a5.052,5.052,0,0,0,2.781-.742,4.434,4.434,0,0,0,1.728-2.147V23.412h-4.455q-3.645,0-3.645,2.538a2.322,2.322,0,0,0,.945,1.957A4.3,4.3,0,0,0,193.658,28.623ZM218.308,9.966V30h-1.836V27.192a5.847,5.847,0,0,1-2.281,2.187,6.692,6.692,0,0,1-3.2.756,7.209,7.209,0,0,1-3.618-.918,6.561,6.561,0,0,1-2.538-2.565,7.577,7.577,0,0,1-.918-3.753,7.577,7.577,0,0,1,.918-3.753,6.468,6.468,0,0,1,2.538-2.552,7.294,7.294,0,0,1,3.618-.9,6.715,6.715,0,0,1,3.118.715,5.91,5.91,0,0,1,2.282,2.093V9.966Zm-7.155,18.468a5.306,5.306,0,0,0,2.687-.688,4.89,4.89,0,0,0,1.89-1.958,6.406,6.406,0,0,0,0-5.778,4.89,4.89,0,0,0-1.89-1.958,5.638,5.638,0,0,0-5.4,0,4.89,4.89,0,0,0-1.89,1.958,6.406,6.406,0,0,0,0,5.778,4.89,4.89,0,0,0,1.89,1.958A5.359,5.359,0,0,0,211.153,28.434Zm18.306,1.7a7.381,7.381,0,0,1-3.7-.931,6.793,6.793,0,0,1-2.592-2.579,7.351,7.351,0,0,1-.945-3.726,7.351,7.351,0,0,1,.945-3.726,6.7,6.7,0,0,1,2.592-2.565,7.911,7.911,0,0,1,7.4,0,6.6,6.6,0,0,1,2.579,2.565,7.435,7.435,0,0,1,.931,3.726,7.435,7.435,0,0,1-.931,3.726,6.7,6.7,0,0,1-2.579,2.579A7.381,7.381,0,0,1,229.459,30.135Zm0-1.7a5.359,5.359,0,0,0,2.714-.688,4.8,4.8,0,0,0,1.877-1.958,6.52,6.52,0,0,0,0-5.778,4.8,4.8,0,0,0-1.877-1.958,5.691,5.691,0,0,0-5.427,0,4.89,4.89,0,0,0-1.89,1.958,6.406,6.406,0,0,0,0,5.778,4.89,4.89,0,0,0,1.89,1.958A5.359,5.359,0,0,0,229.459,28.434ZM260.617,9.966V30h-1.836V27.192a5.846,5.846,0,0,1-2.281,2.187,6.692,6.692,0,0,1-3.2.756,7.209,7.209,0,0,1-3.618-.918,6.561,6.561,0,0,1-2.538-2.565,7.577,7.577,0,0,1-.918-3.753,7.577,7.577,0,0,1,.918-3.753,6.468,6.468,0,0,1,2.538-2.552,7.294,7.294,0,0,1,3.618-.9,6.715,6.715,0,0,1,3.119.715A5.91,5.91,0,0,1,258.7,18.5V9.966Zm-7.155,18.468a5.306,5.306,0,0,0,2.686-.688,4.89,4.89,0,0,0,1.89-1.958,6.405,6.405,0,0,0,0-5.778,4.89,4.89,0,0,0-1.89-1.958,5.638,5.638,0,0,0-5.4,0,4.89,4.89,0,0,0-1.89,1.958,6.406,6.406,0,0,0,0,5.778,4.89,4.89,0,0,0,1.89,1.958A5.359,5.359,0,0,0,253.462,28.434Zm24.867-4.941h-11.88a5.076,5.076,0,0,0,1.7,3.577,5.646,5.646,0,0,0,3.888,1.364,6.127,6.127,0,0,0,2.43-.472,5.308,5.308,0,0,0,1.917-1.391l1.08,1.242a6.081,6.081,0,0,1-2.362,1.728,7.99,7.99,0,0,1-3.118.594,7.885,7.885,0,0,1-3.875-.931,6.716,6.716,0,0,1-2.632-2.579,7.351,7.351,0,0,1-.945-3.726,7.611,7.611,0,0,1,.9-3.726,6.549,6.549,0,0,1,2.484-2.565,6.935,6.935,0,0,1,3.551-.918,6.862,6.862,0,0,1,3.537.918,6.508,6.508,0,0,1,2.457,2.552,7.682,7.682,0,0,1,.891,3.74Zm-6.858-6.156a4.829,4.829,0,0,0-3.443,1.309,5.143,5.143,0,0,0-1.579,3.416h10.071a5.143,5.143,0,0,0-1.579-3.416A4.864,4.864,0,0,0,271.471,17.337ZM56.01,47.1V66H54.066V48.828H49.611V47.1Zm9.747,0V66H63.813V48.828H59.358V47.1Zm5.967,7.533a1.358,1.358,0,0,1-1.012-.432,1.457,1.457,0,0,1-.419-1.053,1.411,1.411,0,0,1,.419-1.04,1.379,1.379,0,0,1,1.012-.418,1.424,1.424,0,0,1,1.026.418,1.389,1.389,0,0,1,.432,1.04A1.433,1.433,0,0,1,72.75,54.2,1.4,1.4,0,0,1,71.724,54.633Zm0,11.5a1.358,1.358,0,0,1-1.012-.432,1.457,1.457,0,0,1-.419-1.053,1.411,1.411,0,0,1,.419-1.04,1.379,1.379,0,0,1,1.012-.418,1.424,1.424,0,0,1,1.026.418,1.389,1.389,0,0,1,.432,1.04A1.433,1.433,0,0,1,72.75,65.7,1.4,1.4,0,0,1,71.724,66.135Zm11.8.027A6.8,6.8,0,0,1,79.622,65a7.609,7.609,0,0,1-2.673-3.334,12.6,12.6,0,0,1-.959-5.117,12.6,12.6,0,0,1,.959-5.116A7.609,7.609,0,0,1,79.622,48.1a7.136,7.136,0,0,1,7.8,0,7.7,7.7,0,0,1,2.687,3.335,12.446,12.446,0,0,1,.972,5.116,12.446,12.446,0,0,1-.972,5.117A7.7,7.7,0,0,1,87.425,65,6.8,6.8,0,0,1,83.523,66.162Zm0-1.782a4.788,4.788,0,0,0,2.9-.918,5.934,5.934,0,0,0,1.958-2.673,11.419,11.419,0,0,0,.7-4.239,11.419,11.419,0,0,0-.7-4.239,5.934,5.934,0,0,0-1.958-2.673,5.048,5.048,0,0,0-5.805,0,5.934,5.934,0,0,0-1.957,2.673,11.419,11.419,0,0,0-.7,4.239,11.419,11.419,0,0,0,.7,4.239,5.934,5.934,0,0,0,1.957,2.673A4.788,4.788,0,0,0,83.523,64.38ZM101.4,66.162A6.8,6.8,0,0,1,97.5,65a7.609,7.609,0,0,1-2.673-3.334,12.6,12.6,0,0,1-.959-5.117,12.6,12.6,0,0,1,.959-5.116A7.609,7.609,0,0,1,97.5,48.1a7.136,7.136,0,0,1,7.8,0,7.7,7.7,0,0,1,2.687,3.335,12.446,12.446,0,0,1,.972,5.116,12.446,12.446,0,0,1-.972,5.117A7.7,7.7,0,0,1,105.3,65,6.8,6.8,0,0,1,101.4,66.162Zm0-1.782a4.788,4.788,0,0,0,2.9-.918,5.934,5.934,0,0,0,1.957-2.673,11.419,11.419,0,0,0,.7-4.239,11.419,11.419,0,0,0-.7-4.239,5.934,5.934,0,0,0-1.957-2.673,5.048,5.048,0,0,0-5.805,0,5.934,5.934,0,0,0-1.957,2.673,11.419,11.419,0,0,0-.7,4.239,11.419,11.419,0,0,0,.7,4.239,5.934,5.934,0,0,0,1.957,2.673A4.788,4.788,0,0,0,101.4,64.38Zm18.846-12.69a5.8,5.8,0,0,1,4.252,1.553,6.064,6.064,0,0,1,1.579,4.522V66h-1.917V57.954a4.707,4.707,0,0,0-1.107-3.375,4.158,4.158,0,0,0-3.159-1.161,4.852,4.852,0,0,0-3.632,1.364,5.15,5.15,0,0,0-1.336,3.766V66h-1.917V45.966h1.917v8.316a5.2,5.2,0,0,1,2.16-1.917A7.088,7.088,0,0,1,120.243,51.69Zm23.085,0a6.012,6.012,0,0,1,4.266,1.39,5.373,5.373,0,0,1,1.485,4.118V66h-1.836V63.786a4.4,4.4,0,0,1-1.9,1.728,6.662,6.662,0,0,1-2.983.621A5.842,5.842,0,0,1,138.576,65a3.9,3.9,0,0,1-.095-5.913,6.408,6.408,0,0,1,4.172-1.107h4.509v-.864a3.639,3.639,0,0,0-1.026-2.795,4.237,4.237,0,0,0-3-.958,7.619,7.619,0,0,0-2.592.445,6.532,6.532,0,0,0-2.133,1.229l-.864-1.431a7.661,7.661,0,0,1,2.592-1.417A10.091,10.091,0,0,1,143.328,51.69Zm-.675,12.933a5.052,5.052,0,0,0,2.781-.743,4.434,4.434,0,0,0,1.728-2.146V59.412h-4.455q-3.645,0-3.645,2.538a2.322,2.322,0,0,0,.945,1.958A4.3,4.3,0,0,0,142.653,64.623ZM165.333,47.1V66h-1.944V48.828h-4.455V47.1Zm12.339,7.587a7.475,7.475,0,0,1,3.308.7,5.381,5.381,0,0,1,2.255,1.984,5.468,5.468,0,0,1,.81,2.984,5.584,5.584,0,0,1-.837,3.051,5.526,5.526,0,0,1-2.309,2.039,7.465,7.465,0,0,1-3.307.715,6.967,6.967,0,0,1-5.751-2.471q-2-2.47-2-6.98a11.992,11.992,0,0,1,1.08-5.346,7.565,7.565,0,0,1,3.024-3.307,8.923,8.923,0,0,1,4.536-1.12,8.518,8.518,0,0,1,4.482,1.026l-.783,1.566a6.6,6.6,0,0,0-3.672-.891,6.268,6.268,0,0,0-4.914,1.984,8.358,8.358,0,0,0-1.782,5.765q0,.675.081,1.539a5.1,5.1,0,0,1,2.241-2.389A7.191,7.191,0,0,1,177.672,54.687Zm-.162,9.828a4.884,4.884,0,0,0,3.334-1.12,3.765,3.765,0,0,0,1.283-2.984,3.725,3.725,0,0,0-1.283-2.97,5.13,5.13,0,0,0-3.469-1.107,5.632,5.632,0,0,0-2.524.54,4.255,4.255,0,0,0-1.715,1.485,3.752,3.752,0,0,0-.621,2.106,3.667,3.667,0,0,0,.581,2,4.17,4.17,0,0,0,1.714,1.485A5.975,5.975,0,0,0,177.51,64.515Zm10.233-9.882a1.358,1.358,0,0,1-1.012-.432,1.457,1.457,0,0,1-.419-1.053,1.411,1.411,0,0,1,.419-1.04,1.379,1.379,0,0,1,1.012-.418,1.424,1.424,0,0,1,1.026.418,1.389,1.389,0,0,1,.432,1.04,1.433,1.433,0,0,1-.432,1.053A1.4,1.4,0,0,1,187.743,54.633Zm0,11.5a1.358,1.358,0,0,1-1.012-.432,1.457,1.457,0,0,1-.419-1.053,1.411,1.411,0,0,1,.419-1.04,1.379,1.379,0,0,1,1.012-.418,1.424,1.424,0,0,1,1.026.418,1.389,1.389,0,0,1,.432,1.04,1.433,1.433,0,0,1-.432,1.053A1.4,1.4,0,0,1,187.743,66.135Zm11.8.027a6.8,6.8,0,0,1-3.9-1.161,7.609,7.609,0,0,1-2.673-3.334,12.6,12.6,0,0,1-.958-5.117,12.6,12.6,0,0,1,.958-5.116,7.609,7.609,0,0,1,2.673-3.335,7.136,7.136,0,0,1,7.8,0,7.7,7.7,0,0,1,2.686,3.335,12.446,12.446,0,0,1,.972,5.116,12.446,12.446,0,0,1-.972,5.117A7.7,7.7,0,0,1,203.444,65,6.8,6.8,0,0,1,199.542,66.162Zm0-1.782a4.788,4.788,0,0,0,2.9-.918,5.934,5.934,0,0,0,1.957-2.673,11.419,11.419,0,0,0,.7-4.239,11.419,11.419,0,0,0-.7-4.239,5.934,5.934,0,0,0-1.957-2.673,5.048,5.048,0,0,0-5.805,0,5.934,5.934,0,0,0-1.958,2.673,11.419,11.419,0,0,0-.7,4.239,11.419,11.419,0,0,0,.7,4.239,5.934,5.934,0,0,0,1.958,2.673A4.788,4.788,0,0,0,199.542,64.38Zm17.874,1.782a6.8,6.8,0,0,1-3.9-1.161,7.609,7.609,0,0,1-2.673-3.334,12.6,12.6,0,0,1-.958-5.117,12.6,12.6,0,0,1,.958-5.116,7.609,7.609,0,0,1,2.673-3.335,7.136,7.136,0,0,1,7.8,0A7.7,7.7,0,0,1,224,51.434a12.446,12.446,0,0,1,.972,5.116A12.446,12.446,0,0,1,224,61.667,7.7,7.7,0,0,1,221.318,65,6.8,6.8,0,0,1,217.416,66.162Zm0-1.782a4.788,4.788,0,0,0,2.9-.918,5.934,5.934,0,0,0,1.957-2.673,11.419,11.419,0,0,0,.7-4.239,11.419,11.419,0,0,0-.7-4.239,5.934,5.934,0,0,0-1.957-2.673,5.048,5.048,0,0,0-5.805,0,5.934,5.934,0,0,0-1.958,2.673,11.419,11.419,0,0,0-.7,4.239,11.419,11.419,0,0,0,.7,4.239,5.934,5.934,0,0,0,1.958,2.673A4.788,4.788,0,0,0,217.416,64.38Zm18.846-12.69a5.8,5.8,0,0,1,4.253,1.553,6.064,6.064,0,0,1,1.579,4.522V66h-1.917V57.954a4.707,4.707,0,0,0-1.107-3.375,4.158,4.158,0,0,0-3.159-1.161,4.852,4.852,0,0,0-3.632,1.364,5.15,5.15,0,0,0-1.337,3.766V66h-1.917V45.966h1.917v8.316a5.2,5.2,0,0,1,2.16-1.917A7.088,7.088,0,0,1,236.262,51.69ZM10.272,119.1h7.7a11.245,11.245,0,0,1,5.292,1.2,8.767,8.767,0,0,1,3.564,3.348,10.1,10.1,0,0,1,0,9.8,8.766,8.766,0,0,1-3.564,3.348,11.245,11.245,0,0,1-5.292,1.2h-7.7Zm7.587,17.172a9.165,9.165,0,0,0,4.347-.986,7.159,7.159,0,0,0,2.889-2.727,8.347,8.347,0,0,0,0-8.019,7.159,7.159,0,0,0-2.889-2.727,9.165,9.165,0,0,0-4.347-.985H12.27v15.444Zm20.115,1.863a7.381,7.381,0,0,1-3.7-.931,6.793,6.793,0,0,1-2.592-2.579,7.818,7.818,0,0,1,0-7.452,6.7,6.7,0,0,1,2.592-2.565,7.911,7.911,0,0,1,7.4,0,6.6,6.6,0,0,1,2.579,2.565,7.918,7.918,0,0,1,0,7.452,6.7,6.7,0,0,1-2.579,2.579A7.381,7.381,0,0,1,37.974,138.135Zm0-1.7a5.359,5.359,0,0,0,2.714-.689,4.8,4.8,0,0,0,1.877-1.958,6.52,6.52,0,0,0,0-5.778,4.8,4.8,0,0,0-1.877-1.957,5.691,5.691,0,0,0-5.427,0,4.89,4.89,0,0,0-1.89,1.957,6.405,6.405,0,0,0,0,5.778,4.89,4.89,0,0,0,1.89,1.958A5.359,5.359,0,0,0,37.974,136.434ZM66.81,123.69a5.645,5.645,0,0,1,4.2,1.539,6.184,6.184,0,0,1,1.525,4.536V138H70.617v-8.046a4.821,4.821,0,0,0-1.066-3.375,3.883,3.883,0,0,0-3.01-1.161,4.525,4.525,0,0,0-3.483,1.364,5.314,5.314,0,0,0-1.269,3.767V138H59.871v-8.046a4.821,4.821,0,0,0-1.066-3.375,3.918,3.918,0,0,0-3.038-1.161,4.535,4.535,0,0,0-3.469,1.364,5.279,5.279,0,0,0-1.283,3.767V138H49.1V123.8h1.836v2.592a5.123,5.123,0,0,1,2.106-2,6.634,6.634,0,0,1,3.1-.7,6.077,6.077,0,0,1,3.091.756,4.648,4.648,0,0,1,1.958,2.241,5.534,5.534,0,0,1,2.254-2.2A6.949,6.949,0,0,1,66.81,123.69Zm10.935.108h1.917V138H77.745Zm.972-3.1a1.357,1.357,0,0,1-1-.4,1.326,1.326,0,0,1-.405-.972,1.3,1.3,0,0,1,.405-.945,1.357,1.357,0,0,1,1-.4,1.382,1.382,0,0,1,1,.391,1.252,1.252,0,0,1,.405.932,1.383,1.383,0,0,1-1.4,1.4Zm13.527,3a5.8,5.8,0,0,1,4.253,1.552,6.064,6.064,0,0,1,1.579,4.522V138H96.159v-8.046a4.707,4.707,0,0,0-1.107-3.375,4.158,4.158,0,0,0-3.159-1.161,4.852,4.852,0,0,0-3.632,1.364,5.15,5.15,0,0,0-1.337,3.767V138H85.008V123.8h1.836v2.619a5.333,5.333,0,0,1,2.174-2.011A6.957,6.957,0,0,1,92.244,123.69Zm24.246.108v12.474q0,3.618-1.769,5.359a7.316,7.316,0,0,1-5.332,1.742,11.914,11.914,0,0,1-3.74-.581,7.69,7.69,0,0,1-2.875-1.606l.972-1.458a7.3,7.3,0,0,0,2.5,1.431,9.323,9.323,0,0,0,3.091.513,5.455,5.455,0,0,0,3.969-1.255,5.285,5.285,0,0,0,1.269-3.9v-1.809a5.778,5.778,0,0,1-2.335,2.052,7.222,7.222,0,0,1-3.2.7,7.55,7.55,0,0,1-3.632-.878,6.48,6.48,0,0,1-2.565-2.457,6.909,6.909,0,0,1-.932-3.577,6.837,6.837,0,0,1,.932-3.564,6.437,6.437,0,0,1,2.551-2.43,7.623,7.623,0,0,1,3.645-.864,7.2,7.2,0,0,1,3.267.729,5.888,5.888,0,0,1,2.349,2.106V123.8Zm-7.263,11.961a5.822,5.822,0,0,0,2.781-.661,4.778,4.778,0,0,0,1.93-1.85,5.285,5.285,0,0,0,.688-2.7,5.212,5.212,0,0,0-.688-2.687,4.828,4.828,0,0,0-1.917-1.836,6.234,6.234,0,0,0-5.562-.013,4.71,4.71,0,0,0-1.917,1.836,5.638,5.638,0,0,0,0,5.4,4.8,4.8,0,0,0,1.917,1.85A5.743,5.743,0,0,0,109.227,135.759Zm18.441,2.376a7.381,7.381,0,0,1-3.7-.931,6.793,6.793,0,0,1-2.592-2.579,7.818,7.818,0,0,1,0-7.452,6.7,6.7,0,0,1,2.592-2.565,7.911,7.911,0,0,1,7.4,0,6.6,6.6,0,0,1,2.579,2.565,7.918,7.918,0,0,1,0,7.452,6.7,6.7,0,0,1-2.579,2.579A7.381,7.381,0,0,1,127.668,138.135Zm0-1.7a5.359,5.359,0,0,0,2.714-.689,4.8,4.8,0,0,0,1.876-1.958,6.52,6.52,0,0,0,0-5.778,4.8,4.8,0,0,0-1.876-1.957,5.691,5.691,0,0,0-5.427,0,4.89,4.89,0,0,0-1.89,1.957,6.405,6.405,0,0,0,0,5.778,4.89,4.89,0,0,0,1.89,1.958A5.359,5.359,0,0,0,127.668,136.434Zm14.931,1.7a10.9,10.9,0,0,1-3.307-.5,7.115,7.115,0,0,1-2.471-1.255l.864-1.512a7.275,7.275,0,0,0,2.241,1.148,8.9,8.9,0,0,0,2.808.445,5.362,5.362,0,0,0,2.875-.607,1.933,1.933,0,0,0,.932-1.714,1.542,1.542,0,0,0-.513-1.229,3.407,3.407,0,0,0-1.3-.675,18.486,18.486,0,0,0-2.079-.446,23.831,23.831,0,0,1-2.781-.661,4.086,4.086,0,0,1-1.8-1.147,3.192,3.192,0,0,1-.743-2.241,3.512,3.512,0,0,1,1.485-2.916,6.668,6.668,0,0,1,4.131-1.134,10.723,10.723,0,0,1,2.754.365,7.577,7.577,0,0,1,2.268.958l-.837,1.539a7.168,7.168,0,0,0-4.185-1.215,4.853,4.853,0,0,0-2.767.648,1.985,1.985,0,0,0-.932,1.7,1.679,1.679,0,0,0,.526,1.3,3.238,3.238,0,0,0,1.31.715,21.132,21.132,0,0,0,2.16.473,24.852,24.852,0,0,1,2.727.648,4.006,4.006,0,0,1,1.755,1.107,3.046,3.046,0,0,1,.729,2.16,3.435,3.435,0,0,1-1.553,2.956A7.381,7.381,0,0,1,142.6,138.135ZM171,123.8l-7.1,15.9a6.787,6.787,0,0,1-2,2.835,4.464,4.464,0,0,1-2.727.837,5.567,5.567,0,0,1-1.917-.324,4.154,4.154,0,0,1-1.539-.972l.891-1.431a3.535,3.535,0,0,0,2.592,1.08,2.609,2.609,0,0,0,1.661-.54,4.9,4.9,0,0,0,1.283-1.836l.621-1.377L156.423,123.8h2l5.346,12.069,5.346-12.069Zm12.177-2.97v7.425h9.774v1.728H183.18V138h-2V119.1h12.96v1.728Zm26.568,10.665h-11.88a5.076,5.076,0,0,0,1.7,3.577,5.646,5.646,0,0,0,3.888,1.364,6.126,6.126,0,0,0,2.43-.473,5.308,5.308,0,0,0,1.917-1.391l1.08,1.242a6.082,6.082,0,0,1-2.363,1.728,7.99,7.99,0,0,1-3.118.594,7.885,7.885,0,0,1-3.874-.931,6.716,6.716,0,0,1-2.633-2.579,7.351,7.351,0,0,1-.945-3.726,7.611,7.611,0,0,1,.9-3.726,6.55,6.55,0,0,1,2.484-2.565,6.935,6.935,0,0,1,3.551-.918,6.863,6.863,0,0,1,3.537.918,6.508,6.508,0,0,1,2.457,2.551,7.683,7.683,0,0,1,.891,3.74Zm-6.858-6.156a4.829,4.829,0,0,0-3.443,1.31,5.143,5.143,0,0,0-1.579,3.415h10.071a5.143,5.143,0,0,0-1.579-3.415A4.864,4.864,0,0,0,202.89,125.337Zm14.607,12.8a10.9,10.9,0,0,1-3.307-.5,7.115,7.115,0,0,1-2.471-1.255l.864-1.512a7.275,7.275,0,0,0,2.241,1.148,8.9,8.9,0,0,0,2.808.445,5.362,5.362,0,0,0,2.875-.607,1.933,1.933,0,0,0,.932-1.714,1.542,1.542,0,0,0-.513-1.229,3.407,3.407,0,0,0-1.3-.675,18.486,18.486,0,0,0-2.079-.446,23.831,23.831,0,0,1-2.781-.661,4.086,4.086,0,0,1-1.8-1.147,3.192,3.192,0,0,1-.743-2.241,3.512,3.512,0,0,1,1.485-2.916,6.668,6.668,0,0,1,4.131-1.134,10.723,10.723,0,0,1,2.754.365,7.577,7.577,0,0,1,2.268.958l-.837,1.539a7.168,7.168,0,0,0-4.185-1.215,4.853,4.853,0,0,0-2.767.648,1.985,1.985,0,0,0-.932,1.7,1.679,1.679,0,0,0,.526,1.3,3.238,3.238,0,0,0,1.31.715,21.132,21.132,0,0,0,2.16.473,24.852,24.852,0,0,1,2.727.648,4.006,4.006,0,0,1,1.755,1.107,3.046,3.046,0,0,1,.729,2.16,3.435,3.435,0,0,1-1.553,2.956A7.381,7.381,0,0,1,217.5,138.135Zm16.875-1a3.63,3.63,0,0,1-1.337.742,5.383,5.383,0,0,1-1.661.257A3.762,3.762,0,0,1,227.217,134v-8.586h-2.538V123.8h2.538v-3.1h1.917v3.1h4.32v1.62h-4.32V133.9a2.684,2.684,0,0,0,.634,1.931,2.408,2.408,0,0,0,1.823.661,3.526,3.526,0,0,0,1.147-.189,2.853,2.853,0,0,0,.959-.54Zm3.483-13.338h1.917V138h-1.917Zm.972-3.1a1.357,1.357,0,0,1-1-.4,1.326,1.326,0,0,1-.4-.972,1.3,1.3,0,0,1,.4-.945,1.357,1.357,0,0,1,1-.4,1.382,1.382,0,0,1,1,.391,1.252,1.252,0,0,1,.4.932,1.383,1.383,0,0,1-1.4,1.4Zm18.225,3.1L250.734,138h-1.971l-6.291-14.2h2l5.319,12.1,5.373-12.1Zm8.1,14.337a7.381,7.381,0,0,1-3.7-.931,6.793,6.793,0,0,1-2.592-2.579,7.818,7.818,0,0,1,0-7.452,6.7,6.7,0,0,1,2.592-2.565,7.911,7.911,0,0,1,7.4,0,6.6,6.6,0,0,1,2.578,2.565,7.918,7.918,0,0,1,0,7.452,6.7,6.7,0,0,1-2.578,2.579A7.381,7.381,0,0,1,265.152,138.135Zm0-1.7a5.359,5.359,0,0,0,2.714-.689,4.8,4.8,0,0,0,1.876-1.958,6.52,6.52,0,0,0,0-5.778,4.8,4.8,0,0,0-1.876-1.957,5.691,5.691,0,0,0-5.427,0,4.889,4.889,0,0,0-1.89,1.957,6.405,6.405,0,0,0,0,5.778,4.889,4.889,0,0,0,1.89,1.958A5.359,5.359,0,0,0,265.152,136.434Zm14.931,1.7a10.9,10.9,0,0,1-3.308-.5,7.114,7.114,0,0,1-2.47-1.255l.864-1.512a7.275,7.275,0,0,0,2.241,1.148,8.9,8.9,0,0,0,2.808.445,5.362,5.362,0,0,0,2.876-.607,1.933,1.933,0,0,0,.931-1.714,1.542,1.542,0,0,0-.513-1.229,3.407,3.407,0,0,0-1.3-.675,18.487,18.487,0,0,0-2.079-.446,23.831,23.831,0,0,1-2.781-.661,4.087,4.087,0,0,1-1.8-1.147,3.192,3.192,0,0,1-.742-2.241,3.512,3.512,0,0,1,1.485-2.916,6.668,6.668,0,0,1,4.131-1.134,10.723,10.723,0,0,1,2.754.365,7.577,7.577,0,0,1,2.268.958l-.837,1.539a7.168,7.168,0,0,0-4.185-1.215,4.853,4.853,0,0,0-2.767.648,1.985,1.985,0,0,0-.932,1.7,1.679,1.679,0,0,0,.527,1.3,3.238,3.238,0,0,0,1.309.715,21.132,21.132,0,0,0,2.16.473,24.851,24.851,0,0,1,2.727.648,4.006,4.006,0,0,1,1.755,1.107,3.046,3.046,0,0,1,.729,2.16,3.435,3.435,0,0,1-1.552,2.956A7.381,7.381,0,0,1,280.083,138.135ZM43.374,153.966V174H41.538v-2.808a5.847,5.847,0,0,1-2.281,2.187,6.692,6.692,0,0,1-3.2.756,7.209,7.209,0,0,1-3.618-.918,6.561,6.561,0,0,1-2.538-2.565,8.131,8.131,0,0,1,0-7.506,6.468,6.468,0,0,1,2.538-2.551,7.294,7.294,0,0,1,3.618-.9,6.715,6.715,0,0,1,3.118.715,5.91,5.91,0,0,1,2.281,2.092v-8.532Zm-7.155,18.468a5.306,5.306,0,0,0,2.687-.689,4.89,4.89,0,0,0,1.89-1.958,6.405,6.405,0,0,0,0-5.778,4.89,4.89,0,0,0-1.89-1.957,5.638,5.638,0,0,0-5.4,0,4.89,4.89,0,0,0-1.89,1.957,6.405,6.405,0,0,0,0,5.778,4.89,4.89,0,0,0,1.89,1.958A5.359,5.359,0,0,0,36.219,172.434Zm24.867-4.941H49.206a5.076,5.076,0,0,0,1.7,3.577,5.646,5.646,0,0,0,3.888,1.364,6.126,6.126,0,0,0,2.43-.473,5.308,5.308,0,0,0,1.917-1.391l1.08,1.242a6.082,6.082,0,0,1-2.363,1.728,7.99,7.99,0,0,1-3.118.594,7.885,7.885,0,0,1-3.875-.931,6.716,6.716,0,0,1-2.632-2.579,7.351,7.351,0,0,1-.945-3.726,7.611,7.611,0,0,1,.9-3.726,6.55,6.55,0,0,1,2.484-2.565,6.935,6.935,0,0,1,3.55-.918,6.863,6.863,0,0,1,3.537.918,6.508,6.508,0,0,1,2.457,2.551,7.683,7.683,0,0,1,.891,3.74Zm-6.858-6.156a4.829,4.829,0,0,0-3.443,1.309,5.143,5.143,0,0,0-1.579,3.415H59.277a5.143,5.143,0,0,0-1.579-3.415A4.864,4.864,0,0,0,54.228,161.337ZM76.071,155.1V174H74.127V156.828H69.672V155.1Zm9.747,0V174H83.874V156.828H79.419V155.1Zm5.967,7.533a1.358,1.358,0,0,1-1.012-.432,1.457,1.457,0,0,1-.419-1.053,1.411,1.411,0,0,1,.419-1.039,1.379,1.379,0,0,1,1.012-.419,1.424,1.424,0,0,1,1.026.419,1.389,1.389,0,0,1,.432,1.039,1.433,1.433,0,0,1-.432,1.053A1.4,1.4,0,0,1,91.785,162.633Zm0,11.5a1.358,1.358,0,0,1-1.012-.432,1.457,1.457,0,0,1-.419-1.053,1.411,1.411,0,0,1,.419-1.039,1.379,1.379,0,0,1,1.012-.419,1.424,1.424,0,0,1,1.026.419,1.389,1.389,0,0,1,.432,1.039,1.433,1.433,0,0,1-.432,1.053A1.4,1.4,0,0,1,91.785,174.135Zm11.8.027a6.8,6.8,0,0,1-3.9-1.161,7.609,7.609,0,0,1-2.673-3.335,14.135,14.135,0,0,1,0-10.233,7.609,7.609,0,0,1,2.673-3.335,7.136,7.136,0,0,1,7.8,0,7.7,7.7,0,0,1,2.687,3.335,13.952,13.952,0,0,1,0,10.233A7.7,7.7,0,0,1,107.485,173,6.8,6.8,0,0,1,103.584,174.162Zm0-1.782a4.788,4.788,0,0,0,2.9-.918,5.934,5.934,0,0,0,1.958-2.673,13.15,13.15,0,0,0,0-8.478,5.934,5.934,0,0,0-1.958-2.673,5.048,5.048,0,0,0-5.805,0,5.934,5.934,0,0,0-1.957,2.673,13.149,13.149,0,0,0,0,8.478,5.934,5.934,0,0,0,1.957,2.673A4.788,4.788,0,0,0,103.584,172.38Zm17.874,1.782a6.8,6.8,0,0,1-3.9-1.161,7.609,7.609,0,0,1-2.673-3.335,14.135,14.135,0,0,1,0-10.233,7.609,7.609,0,0,1,2.673-3.335,7.136,7.136,0,0,1,7.8,0,7.7,7.7,0,0,1,2.686,3.335,13.952,13.952,0,0,1,0,10.233A7.7,7.7,0,0,1,125.359,173,6.8,6.8,0,0,1,121.458,174.162Zm0-1.782a4.788,4.788,0,0,0,2.9-.918,5.934,5.934,0,0,0,1.957-2.673,13.149,13.149,0,0,0,0-8.478,5.934,5.934,0,0,0-1.957-2.673,5.048,5.048,0,0,0-5.805,0,5.934,5.934,0,0,0-1.957,2.673,13.149,13.149,0,0,0,0,8.478,5.934,5.934,0,0,0,1.957,2.673A4.788,4.788,0,0,0,121.458,172.38ZM140.3,159.69a5.8,5.8,0,0,1,4.253,1.552,6.064,6.064,0,0,1,1.579,4.523V174h-1.917v-8.046a4.707,4.707,0,0,0-1.107-3.375,4.158,4.158,0,0,0-3.159-1.161,4.852,4.852,0,0,0-3.632,1.363,5.15,5.15,0,0,0-1.337,3.767V174h-1.917V153.966h1.917v8.316a5.2,5.2,0,0,1,2.16-1.917A7.088,7.088,0,0,1,140.3,159.69Zm23.085,0a6.012,6.012,0,0,1,4.266,1.391,5.373,5.373,0,0,1,1.485,4.117V174H167.3v-2.214a4.4,4.4,0,0,1-1.9,1.728,6.662,6.662,0,0,1-2.983.621,5.842,5.842,0,0,1-3.78-1.134,3.9,3.9,0,0,1-.095-5.913,6.408,6.408,0,0,1,4.172-1.107h4.509v-.864a3.639,3.639,0,0,0-1.026-2.795,4.237,4.237,0,0,0-3-.958,7.619,7.619,0,0,0-2.592.445,6.532,6.532,0,0,0-2.133,1.229l-.864-1.431a7.661,7.661,0,0,1,2.592-1.417A10.091,10.091,0,0,1,163.389,159.69Zm-.675,12.933a5.052,5.052,0,0,0,2.781-.743,4.434,4.434,0,0,0,1.728-2.146v-2.322h-4.455q-3.645,0-3.645,2.538a2.322,2.322,0,0,0,.945,1.958A4.3,4.3,0,0,0,162.714,172.623Zm22.68-17.523V174H183.45V156.828H179V155.1Zm20.574,13.932h-3.78V174h-1.944v-4.968H189.579v-1.4L199.6,155.1h2.16l-9.666,12.2H200.3V162.93h1.89V167.3h3.78Zm3.4-6.4a1.358,1.358,0,0,1-1.012-.432,1.457,1.457,0,0,1-.419-1.053,1.411,1.411,0,0,1,.419-1.039,1.379,1.379,0,0,1,1.012-.419,1.424,1.424,0,0,1,1.026.419,1.389,1.389,0,0,1,.432,1.039,1.433,1.433,0,0,1-.432,1.053A1.4,1.4,0,0,1,209.37,162.633Zm0,11.5a1.358,1.358,0,0,1-1.012-.432,1.457,1.457,0,0,1-.419-1.053,1.411,1.411,0,0,1,.419-1.039,1.379,1.379,0,0,1,1.012-.419,1.424,1.424,0,0,1,1.026.419,1.389,1.389,0,0,1,.432,1.039,1.433,1.433,0,0,1-.432,1.053A1.4,1.4,0,0,1,209.37,174.135Zm11.8.027a6.8,6.8,0,0,1-3.9-1.161,7.609,7.609,0,0,1-2.673-3.335,14.135,14.135,0,0,1,0-10.233,7.609,7.609,0,0,1,2.673-3.335,7.136,7.136,0,0,1,7.8,0,7.7,7.7,0,0,1,2.686,3.335,13.952,13.952,0,0,1,0,10.233A7.7,7.7,0,0,1,225.07,173,6.8,6.8,0,0,1,221.169,174.162Zm0-1.782a4.788,4.788,0,0,0,2.9-.918,5.934,5.934,0,0,0,1.957-2.673,13.15,13.15,0,0,0,0-8.478,5.934,5.934,0,0,0-1.957-2.673,5.048,5.048,0,0,0-5.805,0,5.934,5.934,0,0,0-1.958,2.673,13.15,13.15,0,0,0,0,8.478,5.934,5.934,0,0,0,1.958,2.673A4.788,4.788,0,0,0,221.169,172.38Zm17.874,1.782a6.8,6.8,0,0,1-3.9-1.161,7.609,7.609,0,0,1-2.673-3.335,14.135,14.135,0,0,1,0-10.233,7.609,7.609,0,0,1,2.673-3.335,7.136,7.136,0,0,1,7.8,0,7.7,7.7,0,0,1,2.686,3.335,13.952,13.952,0,0,1,0,10.233A7.7,7.7,0,0,1,242.945,173,6.8,6.8,0,0,1,239.043,174.162Zm0-1.782a4.788,4.788,0,0,0,2.9-.918,5.934,5.934,0,0,0,1.957-2.673,13.15,13.15,0,0,0,0-8.478,5.934,5.934,0,0,0-1.957-2.673,5.048,5.048,0,0,0-5.805,0,5.934,5.934,0,0,0-1.958,2.673,13.15,13.15,0,0,0,0,8.478,5.934,5.934,0,0,0,1.958,2.673A4.788,4.788,0,0,0,239.043,172.38Zm18.846-12.69a5.8,5.8,0,0,1,4.253,1.552,6.064,6.064,0,0,1,1.579,4.523V174H261.8v-8.046a4.707,4.707,0,0,0-1.107-3.375,4.158,4.158,0,0,0-3.159-1.161,4.852,4.852,0,0,0-3.632,1.363,5.15,5.15,0,0,0-1.337,3.767V174h-1.917V153.966h1.917v8.316a5.2,5.2,0,0,1,2.16-1.917A7.088,7.088,0,0,1,257.889,159.69Z" transform="translate(41 2297)"/>
  </g>
</svg>
