<svg id="vegetables" xmlns="http://www.w3.org/2000/svg" width="35.28" height="35.28" viewBox="0 0 35.28 35.28">
  <g id="Group_2" data-name="Group 2" transform="translate(3.718 31.074)">
    <g id="Group_1" data-name="Group 1">
      <path id="Path_1" data-name="Path 1" d="M55.068,451.112l-.006,0a.689.689,0,0,0-.838,1.094l.006,0a.689.689,0,0,0,.838-1.094Z" transform="translate(-53.953 -450.965)" fill="#fff"/>
    </g>
  </g>
  <g id="Group_4" data-name="Group 4" transform="translate(3.718 25.424)">
    <g id="Group_3" data-name="Group 3">
      <path id="Path_2" data-name="Path 2" d="M55.068,369.112l-.006,0a.689.689,0,0,0-.838,1.094l.006,0a.689.689,0,0,0,.838-1.094Z" transform="translate(-53.953 -368.965)" fill="#fff"/>
    </g>
  </g>
  <g id="Group_6" data-name="Group 6" transform="translate(3.718 19.773)">
    <g id="Group_5" data-name="Group 5">
      <path id="Path_3" data-name="Path 3" d="M55.068,287.112l-.006,0a.689.689,0,0,0-.838,1.094l.006,0a.689.689,0,0,0,.838-1.094Z" transform="translate(-53.953 -286.965)" fill="#fff"/>
    </g>
  </g>
  <g id="Group_8" data-name="Group 8" transform="translate(30.174 31.074)">
    <g id="Group_7" data-name="Group 7">
      <path id="Path_4" data-name="Path 4" d="M439.018,451.109l-.006,0a.689.689,0,0,0-.832,1.1l.006,0a.689.689,0,1,0,.832-1.1Z" transform="translate(-437.906 -450.964)" fill="#fff"/>
    </g>
  </g>
  <g id="Group_10" data-name="Group 10" transform="translate(30.174 25.424)">
    <g id="Group_9" data-name="Group 9">
      <path id="Path_5" data-name="Path 5" d="M439.019,369.11l-.006,0a.689.689,0,1,0-.832,1.1l.006,0a.689.689,0,1,0,.832-1.1Z" transform="translate(-437.907 -368.965)" fill="#fff"/>
    </g>
  </g>
  <g id="Group_12" data-name="Group 12" transform="translate(30.174 19.774)">
    <g id="Group_11" data-name="Group 11">
      <path id="Path_6" data-name="Path 6" d="M439.018,287.11l-.006,0a.689.689,0,1,0-.832,1.1l.006,0a.689.689,0,1,0,.832-1.1Z" transform="translate(-437.906 -286.965)" fill="#fff"/>
    </g>
  </g>
  <g id="Group_14" data-name="Group 14" transform="translate(24.761 22.601)">
    <g id="Group_13" data-name="Group 13">
      <path id="Path_7" data-name="Path 7" d="M360.04,328h-.009a.689.689,0,0,0,0,1.378h.009a.689.689,0,0,0,0-1.378Z" transform="translate(-359.342 -328)" fill="#fff"/>
    </g>
  </g>
  <g id="Group_16" data-name="Group 16" transform="translate(9.132 28.251)">
    <g id="Group_15" data-name="Group 15">
      <path id="Path_8" data-name="Path 8" d="M133.226,410h-.009a.689.689,0,0,0,0,1.378h.009a.689.689,0,1,0,0-1.378Z" transform="translate(-132.528 -410)" fill="#fff"/>
    </g>
  </g>
  <g id="Group_18" data-name="Group 18" transform="translate(4.391 12.559)">
    <g id="Group_17" data-name="Group 17">
      <path id="Path_9" data-name="Path 9" d="M64.9,182.462a.689.689,0,1,0,.2.488A.694.694,0,0,0,64.9,182.462Z" transform="translate(-63.72 -182.26)" fill="#fff"/>
    </g>
  </g>
  <g id="Group_20" data-name="Group 20">
    <g id="Group_19" data-name="Group 19">
      <path id="Path_10" data-name="Path 10" d="M34.591,16.951H31.729a4.1,4.1,0,0,0-.2-7.222,4.1,4.1,0,0,0-5.751-5.254,4.764,4.764,0,0,0-2.746-.87c-.067,0-.134,0-.2.005a5.331,5.331,0,0,0-9.85-.583c-.165-.015-.331-.023-.5-.023a5.334,5.334,0,0,0-4.913,3.26q-.219-.067-.445-.117a3.054,3.054,0,0,1,.835-2.01,1.847,1.847,0,0,1,.85-.481l-.01,0h0a.689.689,0,0,0-.1-1.37.682.682,0,0,0-.115.011h0a3.016,3.016,0,0,0-1.485.76V.689A.689.689,0,0,0,6.419,0H4.765a.689.689,0,0,0-.689.689V3.266A8.291,8.291,0,0,0,2.361,1.683a.689.689,0,0,0-.754,1.153A5.93,5.93,0,0,1,4.025,6.255,5.481,5.481,0,0,0,0,11.419a31.9,31.9,0,0,0,1.133,5.532H.689A.689.689,0,0,0,0,17.64V34.591a.689.689,0,0,0,.689.689h33.9a.689.689,0,0,0,.689-.689V17.64A.689.689,0,0,0,34.591,16.951ZM12.489,4.382a3.984,3.984,0,0,1,.789.079.689.689,0,0,0,.786-.445,3.953,3.953,0,0,1,7.4-.144,4.779,4.779,0,0,0-3.2,4.5.689.689,0,0,0,1.378,0,3.393,3.393,0,0,1,5.644-2.539.689.689,0,0,0,.871.036,2.7,2.7,0,0,1,1.633-.544,2.723,2.723,0,0,1,2.185,4.346.689.689,0,0,0,.384,1.08,2.723,2.723,0,0,1-.668,5.362,2.749,2.749,0,0,1-.516-.05.689.689,0,0,0-.779.445,2.709,2.709,0,0,1-.2.438h-.87l2.822-4.045a.689.689,0,0,0-.183-.968L27.953,10.6a.689.689,0,0,0-.972.217l-1,1.663.822-4.16a.689.689,0,0,0-.537-.809l-1.753-.361a.689.689,0,0,0-.816.549L23.467,8.91H21.859a.689.689,0,0,0-.689.689v3.965a5.107,5.107,0,0,0-5-4.12A5.055,5.055,0,0,0,13.1,10.468a5.15,5.15,0,0,0-1.656,2.15,7.662,7.662,0,0,0,.131-1.2,5.121,5.121,0,0,0-.7-2.583,2.524,2.524,0,0,1,2.872-1.6.689.689,0,0,0,.787-.446A2.541,2.541,0,0,1,15.279,5.7a.689.689,0,0,0-.9-1.047,3.927,3.927,0,0,0-.921,1.154q-.109-.006-.217-.006A3.9,3.9,0,0,0,9.935,7.642,5.776,5.776,0,0,0,8.84,6.815,3.955,3.955,0,0,1,12.489,4.382Zm12.7,12.063,2.6-4.3.823.548-2.969,4.256h-.55ZM24.331,13.7V11.785c0-.014.008-.029.01-.044l.577-3.1.4.081Zm-1.788,2.057a.7.7,0,0,0,0-.079V10.288h.405v6.663h-.217q0-.065,0-.13A2.994,2.994,0,0,0,22.543,15.755Zm-9.451-3.215-.061,0a3.719,3.719,0,0,1,6.793,1.324A2.874,2.874,0,0,0,17.5,15.087,5.1,5.1,0,0,0,13.092,12.541Zm3.656,4.41H9.436a3.72,3.72,0,0,1,7.312,0Zm3.1-1.706a1.549,1.549,0,0,1,1.516,1.577c0,.043,0,.087-.005.13H18.334c0-.043-.005-.086-.005-.13A1.549,1.549,0,0,1,19.845,15.244ZM5.454,1.378H5.73V6c-.092,0-.184,0-.276.008Zm-4.035,9.5a.691.691,0,0,0,.133.013H4.959a.689.689,0,0,0,0-1.378H1.9A4.483,4.483,0,0,1,5.788,7.375a4.243,4.243,0,0,1,4.41,4.043,6.972,6.972,0,0,1-.138,1.122H7.323a.689.689,0,0,0,0,1.378H9.611a5.091,5.091,0,0,0-1.57,3.032H2.559a32.636,32.636,0,0,1-1.181-5.532A3.725,3.725,0,0,1,1.419,10.874ZM33.9,22.6H27.838a.689.689,0,0,0,0,1.378H33.9v4.272H12.169a.689.689,0,0,0,0,1.378H33.9V33.9H1.378V29.629H7.442a.689.689,0,0,0,0-1.378H1.378V23.979H23.111a.689.689,0,0,0,0-1.378H1.378V18.329H33.9Z" fill="#fff"/>
    </g>
  </g>
  <g id="Group_22" data-name="Group 22" transform="translate(16.216 3.721)">
    <g id="Group_21" data-name="Group 21">
      <path id="Path_11" data-name="Path 11" d="M236.031,54h-.009a.689.689,0,1,0,0,1.378h.009a.689.689,0,0,0,0-1.378Z" transform="translate(-235.333 -54)" fill="#fff"/>
    </g>
  </g>
</svg>
